<?xml version="1.0" encoding="UTF-8"?>
<svg version="1.1" xmlns="http://www.w3.org/2000/svg" width="1620" height="1076">
<path d="M0 0 C534.6 0 1069.2 0 1620 0 C1620 355.08 1620 710.16 1620 1076 C1085.4 1076 550.8 1076 0 1076 C0 720.92 0 365.84 0 0 Z " fill="#000000" transform="translate(0,0)"/>
<path d="M0 0 C0.62261719 0.16371094 1.24523437 0.32742188 1.88671875 0.49609375 C13.40727905 3.82609412 22.53585361 10.72153872 31 19 C31.57105469 19.55558594 32.14210938 20.11117188 32.73046875 20.68359375 C33.83431942 21.77507635 34.92045582 22.88447101 36 24 C36.33 23.34 36.66 22.68 37 22 C38.485 22.495 38.485 22.495 40 23 C40.33 24.65 40.66 26.3 41 28 C41.99 28.33 42.98 28.66 44 29 C43.175 29.825 42.35 30.65 41.5 31.5 C39.38574735 34.04192199 38.58025249 35.81065963 38.4375 39.125 C38.73404298 42.92127079 38.73404298 42.92127079 40.5 45.5 C43.98297358 47.58978415 47.0982714 47.77735589 51 47 C53.29890775 45.87479621 54.98200335 44.61439732 57 43 C56.67 43.825 56.34 44.65 56 45.5 C56 49.60734448 56.4917581 50.03827154 59.25 52.875 C82.98904135 74.48203764 109.50848901 82.96348273 141 85 C141.33 83.35 141.66 81.7 142 80 C142.66 80 143.32 80 144 80 C143.7827124 79.4652002 143.5654248 78.93040039 143.34155273 78.37939453 C142.36553265 75.96440748 141.4014002 73.54484849 140.4375 71.125 C140.09525391 70.28324219 139.75300781 69.44148438 139.40039062 68.57421875 C139.08134766 67.76855469 138.76230469 66.96289062 138.43359375 66.1328125 C137.98584595 65.01737061 137.98584595 65.01737061 137.52905273 63.87939453 C137 62 137 62 138 60 C138.99 60 139.98 60 141 60 C146.80072454 73.12973312 150.79525726 85.81138712 153 100 C153.19078125 101.22074219 153.3815625 102.44148437 153.578125 103.69921875 C157.32331216 133.00184052 146.5261534 164.67103485 129 188 C125.56008833 192.21785118 121.8044383 196.11273648 118 200 C117.22527344 200.825 116.45054687 201.65 115.65234375 202.5 C110.55939046 207.81751032 105.19764055 212.04134223 99 216 C98.45601562 216.35594238 97.91203125 216.71188477 97.3515625 217.07861328 C71.74983379 233.74107172 40.01902059 240.36514154 9.86645508 234.51538086 C-12.68580265 229.5846005 -33.13146042 219.86758538 -50 204 C-50.76086914 203.30849854 -50.76086914 203.30849854 -51.53710938 202.60302734 C-70.71483699 185.13282237 -84.33056521 160.32087409 -87.60546875 134.51953125 C-87.73591613 132.06768333 -87.73591613 132.06768333 -89 131 C-90.07206344 114.25067225 -90.09414039 97.08941372 -85 81 C-84.66097656 79.83855469 -84.32195312 78.67710937 -83.97265625 77.48046875 C-73.20716773 43.95804009 -49.83792478 20.6788484 -19.37109375 4.57763672 C-6.5225532 -2.01888551 -6.5225532 -2.01888551 0 0 Z " fill="#E9E8E6" transform="translate(359,427)"/>
<path d="M0 0 C13.64841883 5.46637571 23.66396385 14.78120585 33.85546875 25.09375 C31.98046875 29.96875 31.98046875 29.96875 30.85546875 31.09375 C30.9145793 32.63653531 31.00307781 34.17823169 31.10546875 35.71875 C31.20349318 41.40416693 29.52878423 43.8694372 25.85546875 48.09375 C29.32046875 45.61875 29.32046875 45.61875 32.85546875 43.09375 C33.39945312 43.4340625 33.9434375 43.774375 34.50390625 44.125 C37.43672118 45.33320283 39.34257224 44.89180877 42.48046875 44.59375 C45.71804487 44.83705875 47.91892243 45.10219213 50.21044922 47.52832031 C53.18726792 51.81503108 55.36781134 56.53420635 57.54638672 61.26269531 C58.95657687 64.31240904 60.43339681 67.32370693 61.921875 70.3359375 C63.90491591 74.37974875 65.87525345 78.42844547 67.80078125 82.5 C68.19797363 83.33853516 68.59516602 84.17707031 69.00439453 85.04101562 C69.85546875 87.09375 69.85546875 87.09375 69.85546875 89.09375 C65.96962593 87.72950667 63.15565361 85.94280549 59.92578125 83.40625 C53.08244407 78.31567088 45.59809672 74.77758402 37.86230469 71.23925781 C27.44100971 66.43659061 27.44100971 66.43659061 25.90332031 62.91015625 C25.67578125 60.71875 25.67578125 60.71875 25.85546875 57.09375 C25.19546875 56.76375 24.53546875 56.43375 23.85546875 56.09375 C23.93796875 57.125 24.02046875 58.15625 24.10546875 59.21875 C23.81150718 63.77515429 22.58383471 65.5078976 19.85546875 69.09375 C18.84487354 70.75401356 17.84093874 72.41845102 16.85546875 74.09375 C20.12007848 72.28962357 21.7447667 71.25980307 23.85546875 68.09375 C32.97747414 68.7700107 41.11960488 74.92276491 48.83789062 79.39648438 C51.73520131 81.02610443 54.67448463 82.50863977 57.65234375 83.984375 C67.63961119 89.28381262 73.4532177 94.28353112 77.25073242 105.15893555 C79.09460772 111.41344206 80.53458288 117.71085112 81.85546875 124.09375 C82.38514871 126.44436476 82.91634234 128.79463906 83.44921875 131.14453125 C84.54871345 136.19157842 85.62143369 141.23411419 86.40625 146.34082031 C86.82029957 149.13038146 86.82029957 149.13038146 87.5859375 151.96386719 C88.20257694 154.97360567 88.47850322 157.07890899 87.85546875 160.09375 C84.73439147 163.67143589 80.97162194 165.79518249 76.85546875 168.09375 C75.31076904 168.99311279 75.31076904 168.99311279 73.73486328 169.91064453 C70.49787227 171.73667798 67.22502304 173.46061225 63.91796875 175.15625 C62.74516357 175.76041748 61.5723584 176.36458496 60.36401367 176.98706055 C48.62699055 182.94944075 35.27764652 189.64873662 21.85546875 190.09375 C19.90234375 188.6953125 19.90234375 188.6953125 18.60546875 186.71875 C16.80435285 183.96532037 16.80435285 183.96532037 14.04296875 182.37109375 C11.37547494 182.03289364 8.79404986 181.99924308 6.10546875 182.03125 C5.120625 182.04027344 4.13578125 182.04929687 3.12109375 182.05859375 C2.3734375 182.07019531 1.62578125 182.08179688 0.85546875 182.09375 C-3.72567241 174.20463843 -8.19589634 166.32303718 -12.14453125 158.09375 C-12.77559336 156.83571252 -13.40714178 155.57791891 -14.0390625 154.3203125 C-14.70007241 152.97437724 -15.36022966 151.62802289 -16.01953125 150.28125 C-16.34252197 149.64646729 -16.6655127 149.01168457 -16.99829102 148.35766602 C-18.36020849 145.52791662 -19.16068635 143.45572512 -19.01953125 140.29296875 C-17.8941752 137.4645069 -16.00473084 136.28605545 -13.64453125 134.46484375 C-9.98486102 131.11967643 -9.23302723 126.89021383 -8.70703125 122.15625 C-8.90334589 117.56070274 -10.54373022 113.84953934 -13.14453125 110.09375 C-15.71262953 107.6341726 -15.71262953 107.6341726 -18.14453125 106.09375 C-13.83208087 94.47830575 -6.32357561 84.09788126 0.85546875 74.09375 C-1.90192164 74.42797914 -2.92067159 74.82199996 -4.71484375 77 C-5.22789062 77.8559375 -5.7409375 78.711875 -6.26953125 79.59375 C-6.8625 80.57085938 -7.45546875 81.54796875 -8.06640625 82.5546875 C-8.76062592 83.73348625 -9.45318358 84.91326458 -10.14453125 86.09375 C-11.02468043 87.58597239 -11.90489232 89.07815779 -12.78515625 90.5703125 C-14.14773662 92.88286429 -15.50693718 95.19708655 -16.85595703 97.51757812 C-20.04265404 102.99187279 -20.04265404 102.99187279 -21.14453125 104.09375 C-22.66381163 104.16554964 -24.18620607 104.17767007 -25.70703125 104.15625 C-26.94646484 104.14271484 -26.94646484 104.14271484 -28.2109375 104.12890625 C-29.16806641 104.11150391 -29.16806641 104.11150391 -30.14453125 104.09375 C-34.88834005 91.66948887 -39.51755293 73.21281505 -35.14453125 60.09375 C-36.19640625 60.196875 -37.24828125 60.3 -38.33203125 60.40625 C-42.14453125 60.09375 -42.14453125 60.09375 -45.01953125 58.03125 C-47.58374709 54.48659869 -48.30084296 52.47047788 -48.14453125 48.09375 C-45.99020786 45.415402 -44.21944286 43.63120581 -41.14453125 42.09375 C-39.14493113 42.053758 -37.14405883 42.05028201 -35.14453125 42.09375 C-35.47453125 41.43375 -35.80453125 40.77375 -36.14453125 40.09375 C-36.72950837 28.90954457 -33.44170436 15.78010048 -26.14453125 7.09375 C-18.02054041 -0.35894986 -11.04768306 -3.18392853 0 0 Z " fill="#010101" transform="translate(363.14453125,431.90625)"/>
<path d="M0 0 C0.62261719 0.16371094 1.24523437 0.32742188 1.88671875 0.49609375 C13.40727905 3.82609412 22.53585361 10.72153872 31 19 C31.57105469 19.55558594 32.14210938 20.11117188 32.73046875 20.68359375 C33.83431942 21.77507635 34.92045582 22.88447101 36 24 C36.33 23.34 36.66 22.68 37 22 C38.485 22.495 38.485 22.495 40 23 C40.33 24.65 40.66 26.3 41 28 C41.99 28.33 42.98 28.66 44 29 C43.175 29.825 42.35 30.65 41.5 31.5 C39.38574735 34.04192199 38.58025249 35.81065963 38.4375 39.125 C38.73404298 42.92127079 38.73404298 42.92127079 40.5 45.5 C43.98297358 47.58978415 47.0982714 47.77735589 51 47 C53.29890775 45.87479621 54.98200335 44.61439732 57 43 C56.67 43.825 56.34 44.65 56 45.5 C56 49.60734448 56.4917581 50.03827154 59.25 52.875 C82.98904135 74.48203764 109.50848901 82.96348273 141 85 C141.33 83.35 141.66 81.7 142 80 C142.66 80 143.32 80 144 80 C143.7827124 79.4652002 143.5654248 78.93040039 143.34155273 78.37939453 C142.36553265 75.96440748 141.4014002 73.54484849 140.4375 71.125 C140.09525391 70.28324219 139.75300781 69.44148438 139.40039062 68.57421875 C139.08134766 67.76855469 138.76230469 66.96289062 138.43359375 66.1328125 C137.98584595 65.01737061 137.98584595 65.01737061 137.52905273 63.87939453 C137 62 137 62 138 60 C138.99 60 139.98 60 141 60 C146.80072454 73.12973312 150.79525726 85.81138712 153 100 C153.19078125 101.22074219 153.3815625 102.44148437 153.578125 103.69921875 C157.32331216 133.00184052 146.5261534 164.67103485 129 188 C125.56008833 192.21785118 121.8044383 196.11273648 118 200 C117.22527344 200.825 116.45054687 201.65 115.65234375 202.5 C110.55939046 207.81751032 105.19764055 212.04134223 99 216 C98.45601562 216.35594238 97.91203125 216.71188477 97.3515625 217.07861328 C71.74983379 233.74107172 40.01902059 240.36514154 9.86645508 234.51538086 C-12.68580265 229.5846005 -33.13146042 219.86758538 -50 204 C-50.76086914 203.30849854 -50.76086914 203.30849854 -51.53710938 202.60302734 C-70.71483699 185.13282237 -84.33056521 160.32087409 -87.60546875 134.51953125 C-87.73591613 132.06768333 -87.73591613 132.06768333 -89 131 C-90.07206344 114.25067225 -90.09414039 97.08941372 -85 81 C-84.66097656 79.83855469 -84.32195312 78.67710937 -83.97265625 77.48046875 C-73.20716773 43.95804009 -49.83792478 20.6788484 -19.37109375 4.57763672 C-6.5225532 -2.01888551 -6.5225532 -2.01888551 0 0 Z M-22.3125 12.4375 C-26.12411766 18.225512 -28.67845479 23.27584753 -30.25 30 C-30.42273438 30.67289062 -30.59546875 31.34578125 -30.7734375 32.0390625 C-32.63117691 39.62345775 -32.63117691 39.62345775 -31 47 C-31.886875 46.938125 -32.77375 46.87625 -33.6875 46.8125 C-37.40685284 47.02302941 -39.04901974 47.7867648 -42 50 C-44.32319869 52.86728634 -44.32319869 52.86728634 -43.9375 56.375 C-42.80780923 60.74313763 -41.65651528 62.37684774 -38 65 C-34.28999282 65.41831404 -34.28999282 65.41831404 -31 65 C-31.33 65.99 -31.66 66.98 -32 68 C-33.3602096 81.40778039 -30.40968096 95.0737468 -27 108 C-25.45031693 109.54968307 -23.96206142 109.46786307 -21.8125 109.6875 C-19.32738051 109.74769408 -19.32738051 109.74769408 -17 109 C-14.2961639 106.08666571 -12.79692558 102.51934449 -11 99 C-9.51188811 96.52732923 -7.94694006 94.10749405 -6.375 91.6875 C-6.00246094 91.10145996 -5.62992188 90.51541992 -5.24609375 89.91162109 C0.864719 80.378427 0.864719 80.378427 5 79 C4.67314209 79.48243164 4.34628418 79.96486328 4.00952148 80.46191406 C-5.84437116 94.24222007 -5.84437116 94.24222007 -14 109 C-13.26881745 112.15380936 -13.26881745 112.15380936 -10.625 113.75 C-6.29289903 117.4632294 -5.1818423 121.36341929 -4.5625 126.9375 C-4.79467226 132.14623411 -6.7509895 136.83704858 -10.53125 140.47265625 C-12.01205314 141.65947642 -13.5055404 142.83042292 -15 144 C-16.37254588 146.14980497 -16.37254588 146.14980497 -17 148 C-17.495 147.01 -17.495 147.01 -18 146 C-21.63 146 -25.26 146 -29 146 C-29.82254825 150.15762158 -30.64014669 154.31618035 -31.45361328 158.47558594 C-31.72967328 159.88371583 -32.00697122 161.29160371 -32.28564453 162.69921875 C-35.9771632 180.36887016 -35.9771632 180.36887016 -37.1875 198.3125 C-37.18105469 199.38113281 -37.17460937 200.44976563 -37.16796875 201.55078125 C-37.27319448 203.94582873 -37.27319448 203.94582873 -36 205 C-36.99 206.98 -36.99 206.98 -38 209 C-16.81245915 227.83336965 10.68594277 232.31196258 38 232 C37.29488281 231.29488281 36.58976562 230.58976563 35.86328125 229.86328125 C31.2421875 225.2421875 26.62109375 220.62109375 22 216 C22.99 215.67 23.98 215.34 25 215 C26.33804688 216.35544922 26.33804688 216.35544922 27.703125 217.73828125 C28.88528234 218.92982079 30.06758147 220.12121966 31.25 221.3125 C31.83652344 221.90740234 32.42304688 222.50230469 33.02734375 223.11523438 C37.89593079 228.48069925 37.89593079 228.48069925 44.234375 231.43359375 C58.30142865 231.455437 74.89860138 226.84634021 86.78515625 219.2109375 C96.97857115 209.03550041 93.84799768 184.4181362 94 171 C94.33 171 94.66 171 95 171 C95.05008562 175.47996623 95.08603769 179.95977661 95.10986328 184.43994141 C95.11981384 185.95852504 95.13337916 187.47709007 95.15087891 188.99560547 C95.25434493 198.2162545 94.9458199 206.93120693 93 216 C108.46241191 206.47205723 124.9829482 192.57326205 133 176 C132.80643564 171.02378285 130.08170237 166.45466151 127.99609375 161.99609375 C125.89377289 157.31868132 125.89377289 157.31868132 127 154 C129.94033413 159.57765673 132.53012914 164.85326729 134 171 C134.66 171 135.32 171 136 171 C147.78640628 146.02634408 151.86951661 122.51661464 149 95 C147.02 95.99 147.02 95.99 145 97 C144.67 95.68 144.34 94.36 144 93 C143.01 93 142.02 93 141 93 C140.67 91.68 140.34 90.36 140 89 C139.33693848 88.93530518 138.67387695 88.87061035 137.99072266 88.80395508 C110.96873139 86.08495181 81.46749317 79.98017001 62 59 C61.505 59.99 61.505 59.99 61 61 C61.8221512 63.05870147 61.8221512 63.05870147 63.1328125 65.33203125 C63.6071875 66.20730469 64.0815625 67.08257812 64.5703125 67.984375 C65.08335937 68.91765625 65.59640625 69.8509375 66.125 70.8125 C69.94037621 77.89406949 73.37972585 84.79107825 76 92.40625 C78.29334346 98.35460961 81.56184397 101.51695528 86.625 105.25 C94.85216823 111.51594857 101.87165211 118.50938013 108.58984375 126.37109375 C109.67629098 127.62607573 110.82625655 128.82625655 112 130 C111.34 130.66 110.68 131.32 110 132 C109.27296875 131.20078125 108.5459375 130.4015625 107.796875 129.578125 C102.47646339 123.75504654 97.10517853 117.98770605 91.5625 112.375 C91.07942383 111.8790332 90.59634766 111.38306641 90.09863281 110.87207031 C87.29703464 108.06269532 84.58537008 105.73426134 81 104 C80.01 104.495 80.01 104.495 79 105 C78.68675781 104.13632812 78.37351562 103.27265625 78.05078125 102.3828125 C75.24783727 97.75928967 71.7225216 95.68673074 67.1875 92.875 C65.87724854 92.04500488 65.87724854 92.04500488 64.54052734 91.19824219 C57.84875789 87.0169239 51.02710361 83.07268566 44.125 79.25 C43.20485107 78.73679199 42.28470215 78.22358398 41.33666992 77.69482422 C36.8978273 75.29303249 33.13182683 73.37260789 28 73 C27.1028125 74.2065625 27.1028125 74.2065625 26.1875 75.4375 C24 78 24 78 21 79 C21.598125 78.113125 22.19625 77.22625 22.8125 76.3125 C23.534375 75.219375 24.25625 74.12625 25 73 C25.5775 72.195625 26.155 71.39125 26.75 70.5625 C28.36258659 67.2566975 28.21347537 64.62908135 28 61 C28.66 61.33 29.32 61.66 30 62 C29.99742187 63.22976563 29.99484375 64.45953125 29.9921875 65.7265625 C30.13153205 67.94312566 30.13153205 67.94312566 31 70 C34.05375192 72.45904907 37.53596697 73.84534481 41.125 75.375 C43.13914353 76.30183937 45.14956265 77.23681356 47.15625 78.1796875 C48.14882813 78.6447168 49.14140625 79.10974609 50.1640625 79.58886719 C54.19758017 81.59590335 57.9168722 83.94989218 61.625 86.5 C62.22070801 86.90911621 62.81641602 87.31823242 63.43017578 87.73974609 C65.75820266 89.36453611 68.03863548 91.0302711 70.2734375 92.78125 C71.92009283 94.19222773 71.92009283 94.19222773 74 94 C71.76276693 86.61174921 68.67905538 79.9374461 65.1875 73.0625 C64.67896484 72.04220703 64.17042969 71.02191406 63.64648438 69.97070312 C62.13133869 66.96153547 60.57525833 63.97808302 59 61 C58.50209961 60.02788574 58.00419922 59.05577148 57.49121094 58.05419922 C54.80323761 52.7747133 54.80323761 52.7747133 49.9296875 49.875 C48.92164063 49.91625 47.91359375 49.9575 46.875 50 C42.91993976 50.08051013 40.41982235 50.09443666 37 48 C33.535 50.475 33.535 50.475 30 53 C30.825 52.05125 31.65 51.1025 32.5 50.125 C35.39171555 46.1589879 35.34909101 43.10762563 34.8828125 38.33203125 C35.03088709 35.38534682 36.07504705 34.16931226 38 32 C32.84184005 19.84347168 17.93427892 10.8933318 6.3125 5.91015625 C-5.10472105 1.41655405 -14.00630601 3.68232255 -22.3125 12.4375 Z " fill="#EAE9E8" transform="translate(359,427)"/>
<path d="M0 0 C2.20741923 0.02145256 4.41157429 0.00005119 6.61889648 -0.02539062 C20.72055834 -0.05469623 33.98275841 2.83393944 47.02319336 8.27148438 C47.85890869 8.6136499 48.69462402 8.95581543 49.55566406 9.30834961 C75.95443829 20.44115959 95.78412084 41.01580414 109.77319336 65.52148438 C109.11319336 66.51148438 108.45319336 67.50148438 107.77319336 68.52148438 C108.61519635 71.32717965 109.52968185 73.89241732 110.64819336 76.58398438 C113.77319336 84.34189922 113.77319336 84.34189922 113.77319336 86.52148438 C113.11319336 86.52148438 112.45319336 86.52148438 111.77319336 86.52148438 C111.44319336 88.17148437 111.11319336 89.82148438 110.77319336 91.52148438 C100.02065369 91.90298053 90.28211834 91.17166087 79.77319336 88.52148438 C78.69553711 88.25464844 77.61788086 87.9878125 76.50756836 87.71289062 C59.35839468 82.96096442 44.18413799 73.45550948 30.96069336 61.70898438 C30.17710449 61.02485474 30.17710449 61.02485474 29.37768555 60.3269043 C27.94116211 59.00195312 27.94116211 59.00195312 25.77319336 56.52148438 C25.77319336 55.20148438 25.77319336 53.88148438 25.77319336 52.52148438 C25.44319336 52.19148438 25.11319336 51.86148438 24.77319336 51.52148438 C24.27819336 52.01648438 23.78319336 52.51148438 23.27319336 53.02148438 C19.80732772 55.10100376 16.6587786 55.32168411 12.77319336 54.52148438 C9.77319336 52.52148438 9.77319336 52.52148438 7.77319336 49.52148438 C7.13830971 45.52171738 6.77842523 43.14398549 8.90600586 39.67382812 C10.27319336 38.02148438 10.27319336 38.02148438 12.77319336 35.52148438 C12.29881836 35.08835937 11.82444336 34.65523438 11.33569336 34.20898438 C9.77319336 32.52148438 9.77319336 32.52148438 8.77319336 29.52148438 C8.11319336 29.19148438 7.45319336 28.86148437 6.77319336 28.52148438 C6.27819336 30.00648438 6.27819336 30.00648438 5.77319336 31.52148438 C4.70004883 30.36132812 4.70004883 30.36132812 3.60522461 29.17773438 C-5.16286134 19.92286335 -14.41437182 11.90240404 -27.30102539 9.28710938 C-29.86500232 8.26775952 -30.12536476 6.96587219 -31.22680664 4.52148438 C-20.70624046 1.39689846 -10.97713995 -0.12616008 0 0 Z " fill="#020202" transform="translate(389.226806640625,420.478515625)"/>
<path d="M0 0 C8.43912673 6.6605317 13.14584236 13.27975107 17.125 23.25 C17.66833984 24.50876953 17.66833984 24.50876953 18.22265625 25.79296875 C20.92138199 33.14144706 20.125 41.62538044 20.125 49.25 C-8.915 49.25 -37.955 49.25 -67.875 49.25 C-61.66598461 71.02300089 -61.66598461 71.02300089 -45.95727539 84.29077148 C-40.17548383 87.15150416 -35.34226776 87.85968771 -28.9375 87.6875 C-27.61600952 87.66333008 -27.61600952 87.66333008 -26.26782227 87.63867188 C-14.51710875 87.2815669 -6.81757144 84.09876931 2.125 76.25 C3.80437348 74.28036444 4.91721629 72.55054039 6.125 70.25 C10.11382376 71.78416298 13.77283382 74.6747074 16.125 78.25 C15.86023024 82.81499578 12.54667402 85.24581449 9.421875 88.2265625 C-3.06223501 99.22446894 -17.59109752 101.99261871 -33.87695312 101.38623047 C-47.47165634 100.45931889 -58.67695142 94.00502384 -67.875 84.25 C-70.14610411 81.37944137 -72.05862964 78.42435072 -73.875 75.25 C-74.25269531 74.63898438 -74.63039063 74.02796875 -75.01953125 73.3984375 C-82.57526433 60.09808338 -82.22536368 43.45353411 -79.04296875 28.9609375 C-75.07799887 16.36320711 -65.92984687 4.91022638 -54.39453125 -1.46875 C-37.20012645 -10.21257136 -16.46077889 -11.34609997 0 0 Z " fill="#FAF9F9" transform="translate(769.875,520.75)"/>
<path d="M0 0 C0.804375 0.42410156 1.60875 0.84820313 2.4375 1.28515625 C9.32162637 5.34996113 13.24494065 10.82128726 16.3125 18.125 C18.1266119 25.71128614 18.19272097 33.14222499 18.28125 40.9140625 C18.29965942 42.16069672 18.31806885 43.40733093 18.33703613 44.69174194 C18.39558797 48.66944425 18.44856399 52.64720124 18.5 56.625 C18.56822485 61.84643301 18.6419987 67.0677487 18.71875 72.2890625 C18.73232544 73.46868561 18.74590088 74.64830872 18.7598877 75.86367798 C18.71157298 89.57079166 18.71157298 89.57079166 21 103 C18.68756208 103.02685412 16.3750373 103.04632841 14.0625 103.0625 C12.77472656 103.07410156 11.48695312 103.08570313 10.16015625 103.09765625 C7 103 7 103 6 102 C5.90044896 100.06461065 5.87031332 98.12544231 5.875 96.1875 C5.87242188 95.12917969 5.86984375 94.07085938 5.8671875 92.98046875 C5.97936339 90.46310983 6.2690879 88.39576745 7 86 C6.278125 86.721875 5.55625 87.44375 4.8125 88.1875 C3.884375 89.115625 2.95625 90.04375 2 91 C1.2575 91.804375 0.515 92.60875 -0.25 93.4375 C-10.8406547 103.3060646 -21.51225311 105.79083896 -35.64453125 105.3515625 C-41.26241799 105.01475583 -45.99553344 103.55690392 -51 101 C-51.73605469 100.649375 -52.47210937 100.29875 -53.23046875 99.9375 C-60.22087892 96.16031777 -64.60483194 89.48896438 -67 82 C-67.96414082 72.55141997 -67.98540086 63.84878037 -62 56 C-53.82218233 46.366808 -41.36749787 41.43607552 -29 40 C-22.96333492 39.69818092 -16.91637649 39.81031455 -10.875 39.875 C-9.23438047 39.88505123 -7.59375497 39.89417328 -5.953125 39.90234375 C-1.96860035 39.92418451 2.01563259 39.9585957 6 40 C5.72373638 37.43082365 5.43564144 34.86390842 5.140625 32.296875 C5.06408691 31.5735498 4.98754883 30.85022461 4.90869141 30.10498047 C4.057004 22.85323433 1.87170091 18.36117631 -3.8125 13.6875 C-13.88384017 8.35561403 -24.78285516 6.8926279 -35.93359375 9.94921875 C-41.22988412 11.75645669 -45.97381274 13.81957705 -50.625 16.9375 C-52.295625 17.9584375 -52.295625 17.9584375 -54 19 C-57.31861855 17.95101138 -58.85580077 16.21629884 -60.75 13.375 C-61.17796875 12.74335937 -61.6059375 12.11171875 -62.046875 11.4609375 C-62.51867188 10.73777344 -62.51867188 10.73777344 -63 10 C-57.12968731 5.10526936 -51.10879092 1.78427644 -44 -1 C-43.21625 -1.32226562 -42.4325 -1.64453125 -41.625 -1.9765625 C-29.30468587 -6.20179844 -11.50592343 -6.41215525 0 0 Z " fill="#F9F8F8" transform="translate(1270,517)"/>
<path d="M0 0 C13.64841883 5.46637571 23.66396385 14.78120585 33.85546875 25.09375 C31.98046875 29.96875 31.98046875 29.96875 30.85546875 31.09375 C30.9145793 32.63653531 31.00307781 34.17823169 31.10546875 35.71875 C31.20349318 41.40416693 29.52878423 43.8694372 25.85546875 48.09375 C29.32046875 45.61875 29.32046875 45.61875 32.85546875 43.09375 C33.39945312 43.4340625 33.9434375 43.774375 34.50390625 44.125 C37.43672118 45.33320283 39.34257224 44.89180877 42.48046875 44.59375 C45.71804487 44.83705875 47.91892243 45.10219213 50.21044922 47.52832031 C53.18726792 51.81503108 55.36781134 56.53420635 57.54638672 61.26269531 C58.95657687 64.31240904 60.43339681 67.32370693 61.921875 70.3359375 C63.90491591 74.37974875 65.87525345 78.42844547 67.80078125 82.5 C68.19797363 83.33853516 68.59516602 84.17707031 69.00439453 85.04101562 C69.85546875 87.09375 69.85546875 87.09375 69.85546875 89.09375 C65.96962593 87.72950667 63.15565361 85.94280549 59.92578125 83.40625 C53.08244407 78.31567088 45.59809672 74.77758402 37.86230469 71.23925781 C27.44100971 66.43659061 27.44100971 66.43659061 25.90332031 62.91015625 C25.67578125 60.71875 25.67578125 60.71875 25.85546875 57.09375 C25.19546875 56.76375 24.53546875 56.43375 23.85546875 56.09375 C23.93796875 57.125 24.02046875 58.15625 24.10546875 59.21875 C23.81245168 63.76051454 22.52034504 65.48832914 19.85546875 69.09375 C19.50484375 70.00125 19.15421875 70.90875 18.79296875 71.84375 C17.85546875 74.09375 17.85546875 74.09375 14.85546875 76.09375 C10.9186039 76.39658576 7.97366571 76.12780675 4.16796875 75.03125 C0.38327045 73.95056993 0.38327045 73.95056993 -3.14453125 75.09375 C-4.82367337 77.03594768 -4.82367337 77.03594768 -6.26953125 79.59375 C-6.8625 80.57085938 -7.45546875 81.54796875 -8.06640625 82.5546875 C-8.76062592 83.73348625 -9.45318358 84.91326458 -10.14453125 86.09375 C-11.02468043 87.58597239 -11.90489232 89.07815779 -12.78515625 90.5703125 C-14.14773662 92.88286429 -15.50693718 95.19708655 -16.85595703 97.51757812 C-20.04265404 102.99187279 -20.04265404 102.99187279 -21.14453125 104.09375 C-22.66381163 104.16554964 -24.18620607 104.17767007 -25.70703125 104.15625 C-26.94646484 104.14271484 -26.94646484 104.14271484 -28.2109375 104.12890625 C-29.16806641 104.11150391 -29.16806641 104.11150391 -30.14453125 104.09375 C-34.88834005 91.66948887 -39.51755293 73.21281505 -35.14453125 60.09375 C-36.19640625 60.196875 -37.24828125 60.3 -38.33203125 60.40625 C-42.14453125 60.09375 -42.14453125 60.09375 -45.01953125 58.03125 C-47.58374709 54.48659869 -48.30084296 52.47047788 -48.14453125 48.09375 C-45.99020786 45.415402 -44.21944286 43.63120581 -41.14453125 42.09375 C-39.14493113 42.053758 -37.14405883 42.05028201 -35.14453125 42.09375 C-35.47453125 41.43375 -35.80453125 40.77375 -36.14453125 40.09375 C-36.72950837 28.90954457 -33.44170436 15.78010048 -26.14453125 7.09375 C-18.02054041 -0.35894986 -11.04768306 -3.18392853 0 0 Z " fill="#E5E4E1" transform="translate(363.14453125,431.90625)"/>
<path d="M0 0 C1.95488573 1.60475694 3.22836962 3.14512141 4.5859375 5.2734375 C6.42367814 7.51730867 8.28587842 8.10134436 11 9 C11.10957031 10.12535156 11.21914063 11.25070312 11.33203125 12.41015625 C12.11047784 20.05148845 13.01356005 27.54753834 14.625 35.0625 C16.79910736 45.58382787 16.79910736 45.58382787 16 51 C13.25 53.125 13.25 53.125 10 55 C5.88132127 60.20254155 5.37029418 64.54117803 5.6171875 71.125 C6.19291112 75.44880189 7.27970662 77.56383994 10 81 C11.9740089 82.37151983 13.9714039 83.71059097 16 85 C15.61908203 86.61841797 15.61908203 86.61841797 15.23046875 88.26953125 C10.95637414 106.74195968 8.49565171 125.10430691 7 144 C1.359375 144.234375 1.359375 144.234375 -1.875 142.125 C-2.57625 141.42375 -3.2775 140.7225 -4 140 C-4 139.34 -4 138.68 -4 138 C-4.55300781 137.79632812 -5.10601562 137.59265625 -5.67578125 137.3828125 C-8.89588731 135.4669847 -10.92693968 132.79667135 -13.1875 129.875 C-13.66727295 129.25608887 -14.1470459 128.63717773 -14.64135742 127.99951172 C-27.14580349 111.45516769 -33.89539801 93.16517288 -38 73 C-38.19335938 72.06671875 -38.38671875 71.1334375 -38.5859375 70.171875 C-41.33719365 49.09621472 -38.31134106 25.67606013 -28.28515625 6.765625 C-22.96613071 0.32824024 -7.97949522 -2.0727721 0 0 Z " fill="#020202" transform="translate(312,486)"/>
<path d="M0 0 C1.30324219 -0.0309375 1.30324219 -0.0309375 2.6328125 -0.0625 C12.39936903 -0.121158 20.49724542 3.3229349 27.91015625 9.671875 C35.71313948 17.73429245 38.32398291 29.65515766 38.45532227 40.51879883 C38.46522186 41.23153961 38.47512146 41.9442804 38.48532104 42.67861938 C38.51676774 45.0213902 38.54162646 47.36418124 38.56640625 49.70703125 C38.58699034 51.3365683 38.60798718 52.96610019 38.62937927 54.59562683 C38.68444976 58.87482508 38.733925 63.15407032 38.78222656 67.43334961 C38.83255159 71.803916 38.88818012 76.17441455 38.94335938 80.54492188 C39.05075709 89.11322533 39.15175215 97.68158674 39.25 106.25 C34.63 106.25 30.01 106.25 25.25 106.25 C25.220271 103.28410889 25.220271 103.28410889 25.18994141 100.25830078 C25.12190408 93.69242082 25.04510983 87.12668786 24.96247292 80.56097603 C24.91273317 76.58397976 24.86640309 72.60700722 24.828125 68.62988281 C24.79098777 64.78478021 24.74455488 60.93988769 24.69193649 57.09496689 C24.67354234 55.63515825 24.65838044 54.17530484 24.64665604 52.7154274 C24.85597018 35.37098336 24.85597018 35.37098336 17.453125 20.3359375 C10.42918833 13.9193337 4.65264868 12.60672093 -4.8125 12.8671875 C-13.19741003 13.68238709 -20.92523437 17.14109946 -26.75 23.25 C-35.78933913 35.06867616 -35.87078202 48.50990391 -36.06640625 62.81640625 C-36.08718735 64.09104233 -36.10796844 65.36567841 -36.12937927 66.67893982 C-36.18337874 70.03745451 -36.2337183 73.3959821 -36.28222656 76.75457764 C-36.33282069 80.19385634 -36.38830709 83.63305591 -36.44335938 87.07226562 C-36.55004094 93.79811548 -36.65143817 100.52402645 -36.75 107.25 C-41.37 107.25 -45.99 107.25 -50.75 107.25 C-51.08 72.6 -51.41 37.95 -51.75 2.25 C-47.13 2.25 -42.51 2.25 -37.75 2.25 C-37.42 8.19 -37.09 14.13 -36.75 20.25 C-35.265 18.208125 -35.265 18.208125 -33.75 16.125 C-24.8918677 4.77161917 -14.06832578 0.08203105 0 0 Z " fill="#F9F9F8" transform="translate(620.75,512.75)"/>
<path d="M0 0 C1.79133978 -0.05391993 3.58313899 -0.09275571 5.375 -0.125 C6.37273437 -0.14820313 7.37046875 -0.17140625 8.3984375 -0.1953125 C11 0 11 0 13 2 C13.66 2 14.32 2 15 2 C15.4125 2.8971875 15.825 3.794375 16.25 4.71875 C19.47116526 11.69180315 22.76010178 18.62569275 26.1875 25.5 C26.50783203 26.14517578 26.82816406 26.79035156 27.15820312 27.45507812 C29.2993023 31.72403256 31.60018072 35.87082093 34 40 C34.73605469 39.97679687 35.47210938 39.95359375 36.23046875 39.9296875 C37.20628906 39.91164063 38.18210937 39.89359375 39.1875 39.875 C40.15042969 39.85179687 41.11335938 39.82859375 42.10546875 39.8046875 C45.19619997 40.01323886 47.25811133 40.57271549 50 42 C50.763125 43.03125 51.52625 44.0625 52.3125 45.125 C54.59761635 48.13902483 54.59761635 48.13902483 57.09375 48.390625 C59.56233448 48.40806363 59.56233448 48.40806363 63 48 C63.33 48.99 63.66 49.98 64 51 C61.69 51.66 59.38 52.32 57 53 C56.896875 54.2375 56.79375 55.475 56.6875 56.75 C56.25571504 60.3503246 55.37538633 62.211503 53 65 C53 65.99 53 66.98 53 68 C52.34 68.66 51.68 69.32 51 70 C51.73605469 70.73605469 52.47210938 71.47210937 53.23046875 72.23046875 C57.8203125 76.8203125 62.41015625 81.41015625 67 86 C42.50529393 86.27976187 20.09306168 82.62002071 -0.9375 69.3125 C-1.52281494 68.94423096 -2.10812988 68.57596191 -2.71118164 68.1965332 C-5.77365392 66.15962876 -7.74177381 64.50562392 -9 61 C-8.01 60.01 -7.02 59.02 -6 58 C-6.66 58 -7.32 58 -8 58 C-8.49278913 47.26338668 -6.9875324 37.28204878 -5.125 26.75 C-4.85193133 25.15120078 -4.57979106 23.55224271 -4.30859375 21.953125 C-3.04960158 14.59383195 -1.72465651 7.26699927 0 0 Z " fill="#EDECEA" transform="translate(330,573)"/>
<path d="M0 0 C4.62 0 9.24 0 14 0 C13.98428955 1.89049072 13.9685791 3.78098145 13.95239258 5.72875977 C13.90365569 12.03502906 13.86938346 18.34125321 13.84456348 24.64766026 C13.82902953 28.46435301 13.80802152 32.28083855 13.77368164 36.09741211 C13.74064276 39.79329853 13.72305526 43.488988 13.71536827 47.18501091 C13.70990334 48.58214346 13.699237 49.9792675 13.68280983 51.37631416 C13.5491535 63.23473334 13.44442918 78.70150846 22 88 C30.03852494 94.27004946 39.23149624 93.80999568 49 93 C56.63024628 91.35149 62.61747635 87.32736266 67.3984375 81.2109375 C77.33462024 65.61414157 75.65573969 45.06746556 75.75 27.4375 C75.77607271 24.76882382 75.80814643 22.1002608 75.83984375 19.43164062 C75.91307954 12.95445922 75.96303496 6.47748578 76 0 C80.62 0 85.24 0 90 0 C90 34.65 90 69.3 90 105 C85.71 105 81.42 105 77 105 C74.88074396 102.88074396 75.58168983 98.3803907 75.4375 95.4375 C75.39431641 94.63119141 75.35113281 93.82488281 75.30664062 92.99414062 C75.20024738 90.99631195 75.09959112 88.9981793 75 87 C74.34 87.99 73.68 88.98 73 90 C71.9162638 91.32941947 70.81006507 92.64070089 69.6875 93.9375 C69.11386719 94.60652344 68.54023437 95.27554688 67.94921875 95.96484375 C60.66920419 103.56582087 51.66453571 107.14051327 41.21508789 107.54736328 C28.31287583 107.63082047 18.72792334 104.30640025 9.28125 95.375 C5.17822622 91.03062188 3.48570167 86.71439462 2 81 C1.81760773 80.31857941 1.63521545 79.63715881 1.44729614 78.93508911 C-0.44529408 70.83567626 -0.25325643 62.75123033 -0.1953125 54.4921875 C-0.19157488 52.91464417 -0.18873146 51.3370985 -0.18673706 49.759552 C-0.17915947 45.63978484 -0.15956262 41.52016231 -0.1373291 37.40045166 C-0.11674295 33.18365433 -0.10770824 28.96683327 -0.09765625 24.75 C-0.0763102 16.49992675 -0.04117714 8.24999812 0 0 Z " fill="#FAF9F9" transform="translate(927,515)"/>
<path d="M0 0 C3.57069232 3.00307765 6.41337969 6.12006953 9 10 C8.90234375 11.984375 8.90234375 11.984375 8 14 C6.00390625 15.703125 6.00390625 15.703125 3.5625 17.25 C2.75941406 17.77078125 1.95632813 18.2915625 1.12890625 18.828125 C-1 20 -1 20 -3 20 C-3.680625 18.453125 -3.680625 18.453125 -4.375 16.875 C-7.53808621 11.23645502 -13.4100158 8.7949921 -19 6 C-27.88113405 5.27953359 -36.17025408 5.8238748 -43.4375 11.375 C-46.04455991 14.04564673 -47.24181795 15.37757466 -48 19 C-47.92156717 23.94126836 -47.55487664 26.13504524 -44.875 30.3125 C-39.08310952 35.72665849 -32.03852036 36.77401315 -24.5 38.3125 C2.16947161 44.07136332 2.16947161 44.07136332 8.546875 53.21875 C9.14242188 54.34796875 9.14242188 54.34796875 9.75 55.5 C10.15734375 56.2528125 10.5646875 57.005625 10.984375 57.78125 C14.23939363 64.89221377 13.69767638 73.38054191 11.81640625 80.83984375 C9.02356647 88.22951073 2.51510254 94.84569041 -4.5625 98.22265625 C-17.67002049 103.53806063 -32.5591859 103.84809984 -46 99 C-49.56089091 97.27650899 -52.78376925 95.29814307 -56 93 C-56.87785156 92.37931641 -56.87785156 92.37931641 -57.7734375 91.74609375 C-61.72330486 88.7085054 -64.26700879 85.09948681 -67 81 C-65.23871656 79.63343543 -63.46563912 78.28205915 -61.6875 76.9375 C-60.20830078 75.80634766 -60.20830078 75.80634766 -58.69921875 74.65234375 C-57.36310547 73.83443359 -57.36310547 73.83443359 -56 73 C-52.59448718 74.13517094 -52.02000217 74.9936204 -49.875 77.75 C-45.47000372 82.95930558 -39.81900713 86.81147587 -33 88 C-30.38134239 88.14594876 -27.8064062 88.23065443 -25.1875 88.25 C-24.50107422 88.270625 -23.81464844 88.29125 -23.10742188 88.3125 C-15.88704901 88.36714804 -10.32129572 86.02566818 -5 81 C-1.43933344 76.94820702 -1.48644095 72.76655979 -1.66015625 67.58984375 C-2.14508375 63.89436176 -3.1262114 62.37087559 -6 60 C-12.38630432 56.36942973 -18.61673309 54.67941103 -25.75 53.0625 C-50.6878796 47.06204049 -50.6878796 47.06204049 -59 37 C-62.67873365 30.68012425 -62.86217954 23.11534983 -62 16 C-59.37625391 7.0792633 -54.56300223 1.86260125 -46.5546875 -2.640625 C-45.71164062 -3.08921875 -44.86859375 -3.5378125 -44 -4 C-43.38382813 -4.34546875 -42.76765625 -4.6909375 -42.1328125 -5.046875 C-29.62388158 -10.93997135 -11.1573379 -7.15789014 0 0 Z " fill="#F9F8F8" transform="translate(1108,520)"/>
<path d="M0 0 C6.05203108 -1.17335297 12.05307475 -2.05737422 18 0 C23.40693748 4.22110224 26.78339067 10.50919551 30.30029297 16.29150391 C33.08262721 20.7251747 36.24653038 24.86975874 39.375 29.0625 C40.47254037 30.54868427 41.56427479 32.03918507 42.6484375 33.53515625 C43.10395996 34.157854 43.55948242 34.78055176 44.02880859 35.42211914 C45 37 45 37 45 39 C48.57011637 35.55625943 51.67026744 32.01731887 54.6875 28.0625 C55.11248779 27.50546387 55.53747559 26.94842773 55.9753418 26.37451172 C59.98228733 21.08931745 63.84616008 15.70357621 67.67578125 10.2890625 C68.0617749 9.75772705 68.44776855 9.2263916 68.84545898 8.67895508 C70.04562895 6.98875294 70.04562895 6.98875294 71.09399414 5.0456543 C73.91276652 0.30174968 73.91276652 0.30174968 76.98803711 -0.55175781 C79.30242962 -0.6892616 81.50123864 -0.61379906 83.8125 -0.4375 C84.99489258 -0.39012695 84.99489258 -0.39012695 86.20117188 -0.34179688 C88.13572925 -0.25972474 90.06835663 -0.13417148 92 0 C90.26982693 4.11170541 87.42735065 7.33722755 84.625 10.75 C79.19949391 17.44181476 73.97911607 24.26160955 68.8515625 31.18359375 C67.00990535 33.66688875 65.13375888 36.11420523 63.2109375 38.53515625 C62.78321045 39.08083252 62.3554834 39.62650879 61.91479492 40.1887207 C60.76776521 41.64789218 59.60892019 43.09775418 58.44921875 44.546875 C56.84354045 46.80610825 56.84354045 46.80610825 56.9609375 48.95703125 C58.50618335 51.99524019 60.68714269 54.41045008 62.9375 56.9375 C67.18881386 61.83152673 71.22996947 66.80979437 75.15136719 71.97338867 C78.43285383 76.28470357 81.79434796 80.52610892 85.1875 84.75 C86.19929551 86.0116572 87.21101658 87.27337409 88.22265625 88.53515625 C88.69719238 89.12699707 89.17172852 89.71883789 89.66064453 90.32861328 C91.48866809 92.60981075 93.31311568 94.89345104 95.125 97.1875 C95.64320313 97.84105469 96.16140625 98.49460937 96.6953125 99.16796875 C98.0271389 101.03810821 99.03213624 102.92139735 100 105 C85.22456193 106.1966609 85.22456193 106.1966609 80.734375 103.78125 C78.88048813 101.64647118 77.48124607 99.41125217 76 97 C74.64620901 95.1376054 73.25501257 93.3067 71.86083984 91.47436523 C70.29237886 89.41103033 68.74726494 87.33157772 67.203125 85.25 C63.61595064 80.45242938 59.87755157 75.78243344 56.09692383 71.13647461 C47 59.91266882 47 59.91266882 47 57 C46.34 57 45.68 57 45 57 C44.7834375 57.6703125 44.566875 58.340625 44.34375 59.03125 C42.56802999 62.95435236 40.11907406 66.10047209 37.5 69.5 C36.96463623 70.20415039 36.42927246 70.90830078 35.87768555 71.63378906 C34.25801109 73.76070705 32.63037074 75.881274 31 78 C30.53932129 78.60005859 30.07864258 79.20011719 29.60400391 79.81835938 C27.53952267 82.50705805 25.47078341 85.19235158 23.3984375 87.875 C20.13100906 92.13223575 16.92030646 96.43037938 13.71484375 100.734375 C12 103 12 103 11 104 C8.30345146 104.07319621 5.63308542 104.09242537 2.9375 104.0625 C2.17888672 104.05798828 1.42027344 104.05347656 0.63867188 104.04882812 C-1.24091871 104.0370068 -3.12046899 104.01907078 -5 104 C-2.34030695 99.20877989 0.99163085 95.03885564 4.375 90.75 C5.63605474 89.14112493 6.89645567 87.53173721 8.15625 85.921875 C8.795625 85.10525391 9.435 84.28863281 10.09375 83.44726562 C13.04916844 79.65306552 15.96223904 75.82698205 18.875 72 C22.98729599 66.60307406 27.14115136 61.25163643 31.4140625 55.98046875 C32.19910156 55.00013672 32.19910156 55.00013672 33 54 C33.58523438 53.35675781 34.17046875 52.71351563 34.7734375 52.05078125 C36.22264568 50.04700188 36.22264568 50.04700188 35.921875 47.546875 C34.81863547 44.49894205 33.38240202 42.69370158 31.25 40.25 C27.17155753 35.444192 23.30317545 30.52635741 19.5 25.5 C15.08976408 19.68653633 10.60193994 13.97812058 5.90234375 8.39453125 C3.7608425 5.69896602 1.87504714 2.88565161 0 0 Z " fill="#F8F8F8" transform="translate(809,515)"/>
<path d="M0 0 C0.495 0.99 0.495 0.99 1 2 C1.66 2 2.32 2 3 2 C2.7215625 2.54140625 2.443125 3.0828125 2.15625 3.640625 C-2.87437214 13.90581342 -5.99884663 23.618467 -7 35 C-8.0725 35.391875 -9.145 35.78375 -10.25 36.1875 C-13.90495216 37.74862329 -15.80885755 39.62901161 -18 43 C-18.33 43.99 -18.66 44.98 -19 46 C-20.26457031 46.19335938 -21.52914062 46.38671875 -22.83203125 46.5859375 C-24.49224885 46.84857079 -26.15240181 47.11161295 -27.8125 47.375 C-28.64587891 47.50132812 -29.47925781 47.62765625 -30.33789062 47.7578125 C-31.14033203 47.88671875 -31.94277344 48.015625 -32.76953125 48.1484375 C-33.87711792 48.32125244 -33.87711792 48.32125244 -35.00708008 48.49755859 C-37.29767611 48.95689366 -37.29767611 48.95689366 -40 51 C-39.67 51.66 -39.34 52.32 -39 53 C-40.051875 53.268125 -41.10375 53.53625 -42.1875 53.8125 C-46.7122041 55.83359519 -48.00219888 58.89699525 -49.8046875 63.35546875 C-57.68681214 87.38822132 -59.90408339 111.45740219 -53 136 C-52.78569336 136.76683105 -52.57138672 137.53366211 -52.35058594 138.32373047 C-47.70521875 154.44727932 -40.52421959 167.94514746 -30 181 C-29.46890625 181.67289063 -28.9378125 182.34578125 -28.390625 183.0390625 C-26.06703277 185.95715959 -26.06703277 185.95715959 -23 188 C-23 188.66 -23 189.32 -23 190 C-19.49461443 191.96301592 -15.86648272 192.95902388 -12 194 C-12.02066528 192.89966431 -12.02066528 192.89966431 -12.04174805 191.77709961 C-12.11774003 184.61042712 -11.72410572 177.66838028 -10.8125 170.5625 C-10.68593018 169.53914551 -10.55936035 168.51579102 -10.42895508 167.46142578 C-9.3581398 159.40517035 -7.66724405 151.59356075 -5.45043945 143.77563477 C-4.11789074 138.83090424 -3.67188903 135.80711803 -6 131 C-7.30581356 128.9819245 -8.63636792 126.97946592 -10 125 C-11.62100654 120.13698037 -11.39061285 116.2586414 -9.875 111.375 C-7.23930822 106.63075479 -4.2670552 103.75568507 1 102 C6.25765945 101.60319551 9.56102842 102.10501854 14 105 C18.61239211 109.29791083 19.69918324 112.72256691 20.54296875 118.92578125 C20.69378906 119.61027344 20.84460938 120.29476562 21 121 C21.66 121.33 22.32 121.66 23 122 C22.68033924 127.27440258 19.60963971 130.43823349 16 134 C15.34 134.33 14.68 134.66 14 135 C13.26924352 137.3140622 12.59861742 139.64828869 12 142 C10 139 10 139 10 137 C6.37 137 2.74 137 -1 137 C-1.12503906 138.26457031 -1.25007813 139.52914062 -1.37890625 140.83203125 C-1.9725472 146.17062655 -2.93672043 151.4125962 -3.9375 156.6875 C-6.24239088 169.17267295 -8.42062029 181.24118448 -8 194 C-7.34 194.33 -6.68 194.66 -6 195 C-6.33 195.99 -6.66 196.98 -7 198 C-7.99 198 -8.98 198 -10 198 C3.11614833 212.92527223 27.51633104 220.60541707 46.75390625 221.8828125 C52.83666983 222.10240685 58.91413157 222.07482625 65 222 C64.18015625 221.26394531 63.3603125 220.52789063 62.515625 219.76953125 C61.42690461 218.78405158 60.33837294 217.79836339 59.25 216.8125 C58.71117187 216.32974609 58.17234375 215.84699219 57.6171875 215.34960938 C54.41287909 212.43837795 51.6158121 209.47293499 49 206 C50.80664062 205.33496094 50.80664062 205.33496094 53 205 C54.58398437 206.03222656 54.58398437 206.03222656 56.09375 207.640625 C56.64933594 208.21683594 57.20492187 208.79304687 57.77734375 209.38671875 C58.34582031 210.00160156 58.91429687 210.61648438 59.5 211.25 C66.0803768 218.79052225 66.0803768 218.79052225 75.25 221.6875 C76.58804688 221.78611328 76.58804688 221.78611328 77.953125 221.88671875 C78.62859375 221.92410156 79.3040625 221.96148438 80 222 C79.67 222.99 79.34 223.98 79 225 C77.8553125 225.2165625 77.8553125 225.2165625 76.6875 225.4375 C73.91827092 225.9632594 73.91827092 225.9632594 71 227 C41.06545229 229.64996556 9.28441632 221.03722165 -14.2734375 201.98632812 C-16.92301946 199.73418346 -19.46757498 197.38215466 -22 195 C-22.76086914 194.30849854 -22.76086914 194.30849854 -23.53710938 193.60302734 C-42.71483699 176.13282237 -56.33056521 151.32087409 -59.60546875 125.51953125 C-59.73591613 123.06768333 -59.73591613 123.06768333 -61 122 C-62.07206344 105.25067225 -62.09414039 88.08941372 -57 72 C-56.66097656 70.83855469 -56.32195312 69.67710937 -55.97265625 68.48046875 C-46.52854535 39.0726501 -26.45645709 15.49874539 0 0 Z " fill="#EAEAE8" transform="translate(331,436)"/>
<path d="M0 0 C2.20741923 0.02145256 4.41157429 0.00005119 6.61889648 -0.02539062 C20.72055834 -0.05469623 33.98275841 2.83393944 47.02319336 8.27148438 C47.85890869 8.6136499 48.69462402 8.95581543 49.55566406 9.30834961 C75.95443829 20.44115959 95.78412084 41.01580414 109.77319336 65.52148438 C107.79319336 66.51148438 107.79319336 66.51148438 105.77319336 67.52148438 C105.09836914 66.23177734 105.09836914 66.23177734 104.40991211 64.91601562 C97.7056074 52.46262758 89.06920202 42.22393156 78.77319336 32.52148438 C78.26401367 31.98394531 77.75483398 31.44640625 77.23022461 30.89257812 C75.63509772 29.2263581 75.63509772 29.2263581 72.77319336 27.52148438 C67.08926532 27.88467466 61.88887094 29.17169862 56.46069336 30.83398438 C55.72012695 31.05691162 54.97956055 31.27983887 54.21655273 31.50952148 C45.14207212 34.2747108 36.38030196 37.52608581 27.77319336 41.52148438 C27.97944336 42.63523437 28.18569336 43.74898438 28.39819336 44.89648438 C28.52194336 46.09273438 28.64569336 47.28898437 28.77319336 48.52148438 C25.20313994 52.09153779 21.86508648 54.76244378 16.71069336 55.08398438 C12.77319336 54.52148438 12.77319336 54.52148438 9.77319336 52.52148438 C7.68733336 49.39269438 7.05052556 47.29968209 7.26538086 43.52539062 C8.15868672 40.00026826 10.23380935 38.06086838 12.77319336 35.52148438 C12.29881836 35.08835937 11.82444336 34.65523438 11.33569336 34.20898438 C9.77319336 32.52148438 9.77319336 32.52148438 8.77319336 29.52148438 C8.11319336 29.19148438 7.45319336 28.86148437 6.77319336 28.52148438 C6.27819336 30.00648438 6.27819336 30.00648438 5.77319336 31.52148438 C4.70004883 30.36132812 4.70004883 30.36132812 3.60522461 29.17773438 C-5.16286134 19.92286335 -14.41437182 11.90240404 -27.30102539 9.28710938 C-29.86500232 8.26775952 -30.12536476 6.96587219 -31.22680664 4.52148438 C-20.70624046 1.39689846 -10.97713995 -0.12616008 0 0 Z " fill="#E9E9E7" transform="translate(389.226806640625,420.478515625)"/>
<path d="M0 0 C13.64841883 5.46637571 23.66396385 14.78120585 33.85546875 25.09375 C31.98046875 29.96875 31.98046875 29.96875 30.85546875 31.09375 C31.02087286 32.63555264 31.18780677 34.17719126 31.35546875 35.71875 C31.41044985 39.19255608 31.24234054 40.61575209 29.03125 43.34765625 C23.08364537 48.21387822 23.08364537 48.21387822 19.1796875 47.83203125 C16.85546875 47.09375 16.85546875 47.09375 14.85546875 46.09375 C8.40834411 45.54738351 5.15218011 46.35489492 -0.14453125 50.09375 C-0.63953125 50.83625 -1.13453125 51.57875 -1.64453125 52.34375 C-3.14453125 54.09375 -3.14453125 54.09375 -6.33203125 54.46875 C-9.69817428 54.13765396 -12.75711954 53.50526971 -16.01171875 52.60546875 C-19.67289016 51.72705583 -23.39999245 51.42313073 -27.14453125 51.09375 C-27.57765625 50.000625 -28.01078125 48.9075 -28.45703125 47.78125 C-29.65132224 45.00578502 -30.67558774 42.94545763 -33.14453125 41.09375 C-34.13453125 40.76375 -35.12453125 40.43375 -36.14453125 40.09375 C-36.52563688 28.7925023 -33.54805262 15.90669448 -26.14453125 7.09375 C-18.02054041 -0.35894986 -11.04768306 -3.18392853 0 0 Z " fill="#020202" transform="translate(363.14453125,431.90625)"/>
<path d="M0 0 C0.90023401 38.05912412 0.90023401 38.05912412 -4 48 C-7.83450166 51.93373091 -12.45331699 53.66329062 -17.5 55.5625 C-18.69604858 56.01701538 -18.69604858 56.01701538 -19.91625977 56.48071289 C-26.50887263 58.92671194 -33.03947286 60.90145527 -40 62 C-40.93070312 62.18433594 -41.86140625 62.36867188 -42.8203125 62.55859375 C-47.64285105 63.11504051 -50.09468715 62.64567596 -54.10546875 59.78515625 C-56.77211543 57.46570556 -59.24360787 54.98075498 -61.66796875 52.41113281 C-63.47828194 50.49331569 -65.36646367 48.65806181 -67.25 46.8125 C-68.61125 45.4203125 -68.61125 45.4203125 -70 44 C-69.6913501 43.4433667 -69.3827002 42.8867334 -69.06469727 42.31323242 C-67.93587587 39.86067962 -67.49483535 37.62869888 -66.96484375 34.98828125 C-66.08847118 32.00445433 -65.62412145 30.44997015 -63.07861328 28.61474609 C-60.59789857 27.60443191 -58.15351939 26.86594824 -55.5625 26.1875 C-53.72852254 25.62579672 -51.89518346 25.06200473 -50.0625 24.49609375 C-48.73992187 24.1091333 -48.73992187 24.1091333 -47.390625 23.71435547 C-32.182244 19.16985763 -16.2284835 10.82623866 -3.64453125 1.14453125 C-2 0 -2 0 0 0 Z " fill="#010101" transform="translate(452,596)"/>
<path d="M0 0 C3 1 3 1 5.2265625 3.2578125 C24.47151553 22.28592099 53.11782459 28.01816485 79 30 C79.495 31.98 79.495 31.98 80 34 C81.98 34.495 81.98 34.495 84 35 C80.37644672 46.90596077 74.26322221 61.55057314 66 71 C64.09375 71.734375 64.09375 71.734375 62 72 C60.88044922 72.20496094 60.88044922 72.20496094 59.73828125 72.4140625 C55.63052367 72.77125881 53.01769366 72.73022824 49.59375 70.2734375 C47.25565857 67.94335323 45.10979985 65.53810509 43 63 C41.85671484 61.66448105 40.71103218 60.33100926 39.5625 59 C39.005625 58.35289062 38.44875 57.70578125 37.875 57.0390625 C33.77470439 52.57999102 29.20159037 48.03829979 24.07763672 44.77612305 C17.77984305 40.64333445 15.64850253 35.97489977 13 29.0625 C12.16398013 27.0057215 11.32280814 24.95102985 10.4765625 22.8984375 C9.86022949 21.39555176 9.86022949 21.39555176 9.23144531 19.86230469 C7.22299974 15.19398275 4.82716641 10.76666492 2.3359375 6.34204102 C0 2.17081095 0 2.17081095 0 0 Z " fill="#030202" transform="translate(420,486)"/>
<path d="M0 0 C0.24907348 7.27848069 -0.13907119 13.94495977 -2 21 C-2.18304687 21.69996094 -2.36609375 22.39992188 -2.5546875 23.12109375 C-4.80828462 30.25748463 -9.47875712 35.95733123 -16.125 39.4375 C-25.01277974 43.54948108 -37.95767011 43.66289506 -47.29296875 41.09375 C-52.41766444 38.67483161 -55.84420811 35.68278796 -59 31 C-60.58115989 26.25652034 -60.96751995 21.60522444 -59.19921875 16.84375 C-54.64900573 8.71278516 -46.62281481 4.67757382 -38 2 C-25.44965373 -0.43708697 -12.7270072 -0.22393561 0 0 Z " fill="#030202" transform="translate(1276,567)"/>
<path d="M0 0 C2.4296875 1.6640625 2.4296875 1.6640625 4.6875 3.5625 C5.51507812 4.25085938 6.34265625 4.93921875 7.1953125 5.6484375 C12.09341647 10.13705368 16.22805178 14.94905631 17.6875 21.5625 C17.6875 24.5325 17.6875 27.5025 17.6875 30.5625 C-6.4025 30.5625 -30.4925 30.5625 -55.3125 30.5625 C-54.08369239 20.7320391 -50.46397909 12.55144548 -43.3125 5.5625 C-40.08743507 3.34660274 -36.78559202 1.36416649 -33.3125 -0.4375 C-32.24902344 -1.00210938 -32.24902344 -1.00210938 -31.1640625 -1.578125 C-22.07160781 -4.31831683 -8.48707713 -4.37066311 0 0 Z " fill="#030202" transform="translate(758.3125,528.4375)"/>
<path d="M0 0 C3.63 0 7.26 0 11 0 C11.60585938 1.43988281 12.21171875 2.87976563 12.8359375 4.36328125 C13.68078687 6.34699572 14.5272621 8.33001822 15.375 10.3125 C15.81602051 11.34963135 16.25704102 12.3867627 16.71142578 13.45532227 C18.93967723 18.60249654 21.25182046 23.60178782 24.03125 28.4765625 C24.74595459 29.73666138 24.74595459 29.73666138 25.47509766 31.0222168 C26.38961768 32.60005889 27.33115958 34.16262674 28.30224609 35.70629883 C29.53726208 37.8409746 30.46899916 39.589763 31 42 C30.33788116 44.25965436 29.43862918 45.92354386 28.11767578 47.86743164 C26.50967603 50.6465873 26.50967603 50.6465873 26 57 C14.78 57.33 3.56 57.66 -8 58 C-8 43.05160569 -8 43.05160569 -6.7578125 36.171875 C-6.62937958 35.41255676 -6.50094666 34.65323853 -6.36862183 33.87091064 C-5.96406505 31.49542763 -5.54462689 29.12286122 -5.125 26.75 C-4.85193133 25.15120078 -4.57979106 23.55224271 -4.30859375 21.953125 C-3.04960158 14.59383195 -1.72465651 7.26699927 0 0 Z " fill="#050505" transform="translate(330,573)"/>
<path d="M0 0 C2.47612769 0.25792997 4.62217831 0.62216467 7 1.3125 C7.77472656 1.30863281 8.54945313 1.30476562 9.34765625 1.30078125 C12.52445204 2.51254872 12.77662624 3.2223446 14.2734375 6.171875 C14.99382158 7.79340373 15.69364604 9.42418824 16.375 11.0625 C16.74238281 11.87460937 17.10976563 12.68671875 17.48828125 13.5234375 C18.90651244 16.8094524 20.00879316 19.43569674 19.97265625 23.0390625 C12.740082 39.94411557 -5.00552525 53.7678999 -20 63.3125 C-19.855625 62.67538086 -19.71125 62.03826172 -19.5625 61.38183594 C-18.26035054 54.81909307 -17.87084773 48.552258 -17.9375 41.890625 C-17.94056152 41.05478882 -17.94362305 40.21895264 -17.94677734 39.35778809 C-17.96065056 35.87709707 -17.9772832 32.39900355 -18.07177734 28.91943359 C-18.43553227 14.20787156 -18.43553227 14.20787156 -14.84765625 9.47070312 C-12.32350702 7.46732184 -9.78714126 5.91692579 -7 4.3125 C-6.29488281 3.59610352 -5.58976562 2.87970703 -4.86328125 2.14160156 C-3 0.3125 -3 0.3125 0 0 Z " fill="#040304" transform="translate(472,579.6875)"/>
<path d="M0 0 C4.62 0 9.24 0 14 0 C14 34.65 14 69.3 14 105 C9.38 105 4.76 105 0 105 C0 70.35 0 35.7 0 0 Z " fill="#F6F6F6" transform="translate(1326,515)"/>
<path d="M0 0 C23.60806472 -2.03908428 44.86400049 8.04926093 65 19 C64.67 19.66 64.34 20.32 64 21 C61.99667995 21.49405186 59.9696521 21.89259783 57.9375 22.25 C47.96846665 24.25602612 38.31777124 27.60949865 29.3125 32.375 C26.11541726 33.94338021 24.47745797 34.59613565 21 34 C20.01 33.34 19.02 32.68 18 32 C15.49103314 31.54398739 15.49103314 31.54398739 12.8125 31.375 C11.91144531 31.30023438 11.01039063 31.22546875 10.08203125 31.1484375 C9.39496094 31.09945313 8.70789063 31.05046875 8 31 C6.83605222 27.71446608 5.69733692 24.42069077 4.5625 21.125 C4.23701172 20.2071875 3.91152344 19.289375 3.57617188 18.34375 C1.48161273 12.21122633 0.33695159 6.47334158 0 0 Z " fill="#030303" transform="translate(392,424)"/>
<path d="M0 0 C7.72422049 0.66257422 15.34800303 1.76464626 23 3 C23.10957031 3.58007812 23.21914063 4.16015625 23.33203125 4.7578125 C24.3143365 9.59746277 25.54821911 13.65366116 28 18 C27.44054687 18.67804688 26.88109375 19.35609375 26.3046875 20.0546875 C23.75075007 23.31853297 21.42117593 26.67742876 19.125 30.125 C18.46963257 31.10654053 18.46963257 31.10654053 17.80102539 32.10791016 C14.61152933 36.9419809 11.73443056 41.88401156 9.05859375 47.0234375 C8 49 8 49 7 50 C5.48071962 50.07179964 3.95832518 50.08392007 2.4375 50.0625 C1.61121094 50.05347656 0.78492188 50.04445313 -0.06640625 50.03515625 C-0.70449219 50.02355469 -1.34257812 50.01195312 -2 50 C-6.67532521 37.75510064 -10.12816657 22.12090095 -8 9 C-6.2420761 6.38192985 -4.80510853 5.62696295 -2 4 C-0.79513133 1.96137182 -0.79513133 1.96137182 0 0 Z " fill="#030303" transform="translate(335,486)"/>
<path d="M0 0 C1.97421798 1.84546464 3.26717687 3.74097047 4.7109375 6.01953125 C6.4485476 8.68913222 8.04035558 9.84501681 11 11 C14.59536467 11.26148107 17.39028613 11.18592923 20.84375 10.1328125 C24 10 24 10 27.03515625 12.3515625 C28.06262999 13.42543828 29.07137019 14.51749236 30.0625 15.625 C30.56587891 16.15996094 31.06925781 16.69492187 31.58789062 17.24609375 C32.58507225 18.30648611 33.57563868 19.37314306 34.55908203 20.44628906 C36.64454266 22.69499652 38.81758888 24.84561985 41 27 C16.50529393 27.27976187 -5.90693832 23.62002071 -26.9375 10.3125 C-27.52281494 9.94423096 -28.10812988 9.57596191 -28.71118164 9.1965332 C-31.77365392 7.15962876 -33.74177381 5.50562392 -35 2 C-33.17275391 1.90912109 -33.17275391 1.90912109 -31.30859375 1.81640625 C-29.68488723 1.73193597 -28.06118978 1.64729128 -26.4375 1.5625 C-25.23770508 1.50352539 -25.23770508 1.50352539 -24.01367188 1.44335938 C-16.24579455 1.03118629 -7.6254032 -1.79272724 0 0 Z " fill="#060605" transform="translate(356,632)"/>
<path d="M0 0 C8.54310245 12.81465368 3.8475426 34.33457418 1.125 48.50390625 C-3.69511095 72.44569046 -14.98665335 92.61626119 -32 110 C-32.77472656 110.825 -33.54945313 111.65 -34.34765625 112.5 C-39.44060954 117.81751032 -44.80235945 122.04134223 -51 126 C-51.54398437 126.35594238 -52.08796875 126.71188477 -52.6484375 127.07861328 C-67.15569441 136.52041965 -86.29173809 145.70833048 -104 145 C-103.505 144.01 -103.505 144.01 -103 143 C-101.68 143.33 -100.36 143.66 -99 144 C-98.81824219 143.37867188 -98.63648438 142.75734375 -98.44921875 142.1171875 C-96.28558913 138.95630541 -93.37019211 138.8184414 -89.8125 138.125 C-74.74809414 134.88138814 -74.74809414 134.88138814 -62 127 C-56.98829837 115.84697509 -57.45390646 103.02532224 -57.32739258 91.03393555 C-57.3095874 89.76718994 -57.29178223 88.50044434 -57.2734375 87.1953125 C-57.26747559 86.05078613 -57.26151367 84.90625977 -57.25537109 83.72705078 C-57 81 -57 81 -55 79 C-52.75598471 83.48803058 -53.8141617 89.65157526 -53.81469727 94.64575195 C-53.81253835 96.89749855 -53.79446198 99.14873259 -53.77539062 101.40039062 C-53.74494413 109.44596016 -54.1234448 117.13335303 -56 125 C-44.02816131 116.01173867 -33.11320326 107.02388415 -24 95 C-23.04480469 93.75089844 -23.04480469 93.75089844 -22.0703125 92.4765625 C-18.90048472 88.48993733 -18.90048472 88.48993733 -18.15625 83.6796875 C-19.41509798 79.68167956 -21.18956042 75.94571433 -23.00390625 72.171875 C-24.73190215 68.36863044 -25.32137407 66.00968682 -24 62 C-19.26419582 67.68296502 -16.61152095 73.6617486 -16 81 C-15.34 81 -14.68 81 -14 81 C-13.7525 80.195625 -13.505 79.39125 -13.25 78.5625 C-12.31423946 75.89558245 -11.31803631 73.49460658 -10.12109375 70.953125 C-7.82743002 65.82601992 -6.26391436 60.6055799 -4.8125 55.1875 C-4.55130371 54.21482178 -4.29010742 53.24214355 -4.02099609 52.23999023 C-2.25949862 45.46643774 -1.03846809 39.02042684 -1 32 C-0.97421875 30.79085937 -0.9484375 29.58171875 -0.921875 28.3359375 C-0.83163258 20.83077642 -1.13202959 13.45524585 -2 6 C-2.66 6.99 -3.32 7.98 -4 9 C-4.99 8.505 -4.99 8.505 -6 8 C-5.8125 5.6875 -5.8125 5.6875 -5 3 C-2.4375 1.1875 -2.4375 1.1875 0 0 Z " fill="#ECEBEA" transform="translate(509,517)"/>
<path d="M0 0 C1.32 0.66 2.64 1.32 4 2 C5.87607893 1.84595246 7.75104207 1.67800128 9.625 1.5 C12.86257612 1.74330875 15.06345368 2.00844213 17.35498047 4.43457031 C20.33179917 8.72128108 22.51234259 13.44045635 24.69091797 18.16894531 C26.10110812 21.21865904 27.57792806 24.22995693 29.06640625 27.2421875 C31.04944716 31.28599875 33.0197847 35.33469547 34.9453125 39.40625 C35.34250488 40.24478516 35.73969727 41.08332031 36.14892578 41.94726562 C37 44 37 44 37 46 C33.10859726 44.63495297 30.29807467 42.84357518 27.06640625 40.30078125 C22.90122896 37.20083809 18.78157479 34.76625751 14.08984375 32.54296875 C12.91615234 31.98673828 11.74246094 31.43050781 10.53320312 30.85742188 C8.72203251 30.01627528 6.91035382 29.17556483 5.08227539 28.37182617 C-5.23303227 23.79467273 -5.23303227 23.79467273 -7.17919922 19.24072266 C-7.68359375 16.30078125 -7.68359375 16.30078125 -7.82202148 13.54418945 C-7.86191807 10.63665335 -7.86191807 10.63665335 -10 7 C-6.7 4.69 -3.4 2.38 0 0 Z " fill="#040404" transform="translate(396,475)"/>
<path d="M0 0 C0.33 0 0.66 0 1 0 C3.83123119 27.14948482 0.42752173 51.71798348 -12 76 C-12.66 76 -13.32 76 -14 76 C-14.25394531 75.19175781 -14.50789063 74.38351562 -14.76953125 73.55078125 C-15.28580078 71.94783203 -15.28580078 71.94783203 -15.8125 70.3125 C-16.14894531 69.25675781 -16.48539062 68.20101562 -16.83203125 67.11328125 C-17.94655247 64.14246717 -19.35662301 61.69949535 -21 59 C-20.81937687 56.20034153 -19.76900721 54.59132045 -18.375 52.125 C-16.74197148 48.41357155 -16.85458815 46.8453112 -18 43 C-19.46111016 40.20102057 -19.46111016 40.20102057 -21 38 C-20.34 38 -19.68 38 -19 38 C-18.71479492 37.41839111 -18.42958984 36.83678223 -18.13574219 36.23754883 C-17.09229885 34.18183985 -15.98550136 32.19239409 -14.828125 30.19921875 C-9.88348113 21.57180029 -5.54023409 13.06663234 -2.05859375 3.74609375 C-1 1 -1 1 0 0 Z " fill="#080707" transform="translate(507,522)"/>
<path d="M0 0 C3.93792318 2.56821077 6.74612583 5.61725165 8.875 9.875 C9.49893015 15.24971262 9.83522144 20.26689369 6.6875 24.875 C3.72308971 28.30877525 1.22808918 30.55430641 -3.41796875 31.1875 C-8.37590439 31.42752109 -12.46663405 31.06989968 -16.65234375 28.26953125 C-20.46328722 24.66075985 -21.93463756 20.42509413 -22.5625 15.3125 C-21.86271056 9.81415443 -20.35220693 5.65937316 -16.125 2 C-10.90338601 -1.69864324 -6.04227423 -2.17521872 0 0 Z " fill="#151214" transform="translate(342.125,539.125)"/>
<path d="M0 0 C0 3.51766039 -0.95408117 5.48016587 -2.375 8.6875 C-5.66184911 16.41252389 -7.26516448 23.64608041 -8 32 C-9.0725 32.391875 -10.145 32.78375 -11.25 33.1875 C-14.90495216 34.74862329 -16.80885755 36.62901161 -19 40 C-19.33 40.99 -19.66 41.98 -20 43 C-21.22976563 43.20496094 -22.45953125 43.40992188 -23.7265625 43.62109375 C-24.51160156 43.75193359 -25.29664063 43.88277344 -26.10546875 44.01757812 C-29.34277344 44.55712891 -32.58007812 45.09667969 -35.81738281 45.63623047 C-36.53764648 45.75627441 -37.25791016 45.87631836 -38 46 C-40 46.33333333 -42 46.66666667 -44 47 C-38.28649296 27.50017001 -16.56502804 10.34952886 0 0 Z " fill="#040304" transform="translate(332,439)"/>
<path d="M0 0 C6.12108825 4.30452057 11.4303941 9.12401763 16.6875 14.4375 C17.42033203 15.16259766 18.15316406 15.88769531 18.90820312 16.63476562 C23.09935301 20.84103237 26.70100694 25.06127074 30 30 C29.505 30.515625 29.01 31.03125 28.5 31.5625 C26.45922815 34.87875425 26.73467982 37.15285738 27 41 C27.29003906 41.94359375 27.58007812 42.8871875 27.87890625 43.859375 C28 47 28 47 25.54296875 49.9921875 C24.44172321 50.97283937 23.32230244 51.93338264 22.1875 52.875 C21.62740234 53.37257813 21.06730469 53.87015625 20.49023438 54.3828125 C16.33146248 58 16.33146248 58 14 58 C12.96426279 52.85286991 11.94218284 47.70394546 10.95703125 42.546875 C8.37066179 29.30947944 4.95881413 16.61765059 0.56323242 3.86572266 C0 2 0 2 0 0 Z " fill="#050505" transform="translate(440,531)"/>
<path d="M0 0 C10.63069336 0.66441833 21.63098635 14.32617145 28.51953125 21.6953125 C34.64214934 28.87947033 39.33643187 36.83048703 44 45 C42.02 45.99 42.02 45.99 40 47 C39.55011719 46.14019531 39.10023438 45.28039062 38.63671875 44.39453125 C31.93241404 31.9411432 23.29600866 21.70244719 13 12 C12.49082031 11.46246094 11.98164063 10.92492187 11.45703125 10.37109375 C9.86190436 8.70487372 9.86190436 8.70487372 7 7 C1.31607196 7.36319029 -3.88432242 8.65021425 -9.3125 10.3125 C-10.05306641 10.53542725 -10.79363281 10.75835449 -11.55664062 10.98803711 C-20.63112124 13.75322643 -29.3928914 17.00460144 -38 21 C-37.79375 22.11375 -37.5875 23.2275 -37.375 24.375 C-37.25125 25.57125 -37.1275 26.7675 -37 28 C-40.57005342 31.57005342 -43.90810688 34.24095941 -49.0625 34.5625 C-53 34 -53 34 -56 32 C-58.06244463 28.90633305 -58.80307209 26.81363661 -58.546875 23.0703125 C-57.50506292 19.12630964 -55.28921769 16.36277865 -52 14 C-47.49696032 13.31309564 -45.80128377 13.46581082 -42 16 C-36.50264993 15.71242573 -32.25335489 13.99826803 -27.375 11.6875 C-18.29462239 7.5551506 -9.00990139 3.93115362 1 3 C0.505 1.515 0.505 1.515 0 0 Z " fill="#EBE9E7" transform="translate(455,441)"/>
<path d="M0 0 C3.15689734 1.60714774 5.19415756 2.97438234 7.375 5.75 C8.83243811 10.99677719 8.72165056 14.65623688 6.1875 19.375 C4.00400421 21.99519495 2.4057147 23.76973054 -1.05078125 24.3359375 C-6.55191469 24.43094844 -9.66041406 23.70452458 -14 20 C-16.69248399 15.96127401 -16.67205444 12.74486631 -16 8 C-12.12543865 0.65169398 -7.94018771 -1.11108429 0 0 Z " fill="#060505" transform="translate(375,616)"/>
<path d="M0 0 C1.29550781 -0.02126953 1.29550781 -0.02126953 2.6171875 -0.04296875 C6.39184175 0.30392315 8.43294895 1.37186841 10.875 4.25 C12.60393306 8.3129927 12.96553308 11.83965163 12.125 16.1875 C10.40303193 19.25515423 8.31857293 21.59071354 5.125 23.1875 C1.03342645 23.70262617 -3.11089546 24.13117269 -6.83203125 22.140625 C-9.61788828 19.83602308 -11.63900578 17.87317303 -12.1484375 14.234375 C-12.33829043 9.94077801 -12.3092668 7.09167036 -9.5 3.6875 C-6.0784822 0.42891162 -4.59511972 0.03408843 0 0 Z " fill="#050404" transform="translate(373.875,480.8125)"/>
<path d="M0 0 C0.62648438 0.16242188 1.25296875 0.32484375 1.8984375 0.4921875 C13.41262481 3.85915202 22.52826732 10.71411886 31 19 C31.57105469 19.55558594 32.14210938 20.11117188 32.73046875 20.68359375 C33.83431942 21.77507635 34.92045582 22.88447101 36 24 C36.33 23.34 36.66 22.68 37 22 C38.485 22.495 38.485 22.495 40 23 C40.495 25.475 40.495 25.475 41 28 C42.485 28.495 42.485 28.495 44 29 C42.7625 30.2375 42.7625 30.2375 41.5 31.5 C39.38574735 34.04192199 38.58025249 35.81065963 38.4375 39.125 C39.04372586 43.30122257 39.68836935 44.51627701 43 47 C42.67 47.99 42.34 48.98 42 50 C41.278125 49.7525 40.55625 49.505 39.8125 49.25 C36.83172517 48.67590338 36.83172517 48.67590338 34.3125 50.9375 C33.549375 51.618125 32.78625 52.29875 32 53 C31.34 53 30.68 53 30 53 C31.07401108 50.08482708 31.77810176 48.22189824 34 46 C34.10097573 43.47999712 33.93133098 41.02418913 33.77734375 38.5078125 C34.04492593 35.4939921 35.01624407 34.22719334 37 32 C31.86062304 20.1767701 17.65065155 11.77171833 6.3125 6.91015625 C0.49216639 4.61938306 -4.7884368 4.17640984 -11 5 C-16.15282065 7.30264329 -19.78247291 10.38921351 -23 15 C-23.99 14.67 -24.98 14.34 -26 14 C-25.67 13.01 -25.34 12.02 -25 11 C-25.66 11 -26.32 11 -27 11 C-26 8 -26 8 -24.3894043 6.94091797 C-23.70789307 6.62783691 -23.02638184 6.31475586 -22.32421875 5.9921875 C-21.57849609 5.64542969 -20.83277344 5.29867188 -20.06445312 4.94140625 C-19.28005859 4.58949219 -18.49566406 4.23757813 -17.6875 3.875 C-16.91470703 3.51535156 -16.14191406 3.15570313 -15.34570312 2.78515625 C-5.87048107 -1.56546162 -5.87048107 -1.56546162 0 0 Z " fill="#EEEDEA" transform="translate(359,427)"/>
<path d="M0 0 C2.96922861 1.79349379 5.42452071 3.84904142 7 7 C7.50698467 12.15434412 7.50698467 12.15434412 7 15 C4.5625 17.9375 4.5625 17.9375 2 20 C1.67 20.33 1.34 20.66 1 21 C-3.98257319 21.64588912 -7.78969369 21.79040412 -12.0625 19 C-14.65291514 14.98903462 -15 12.78842489 -15 8 C-12.27891197 1.19727992 -7.06467784 -0.99153373 0 0 Z " fill="#F8F7F7" transform="translate(1164,599)"/>
<path d="M0 0 C5.57894737 3.15789474 5.57894737 3.15789474 7 6 C7.5811138 13.08958838 7.5811138 13.08958838 5.125 16.9375 C1.8698054 20.09695358 -0.42413238 20.33421243 -4.9609375 20.29296875 C-8.13134567 19.83745033 -9.8192402 18.24684343 -12 16 C-13.53214888 12.93570224 -13.22938548 10.3834358 -13 7 C-11.73001681 4.14253783 -10.7161997 2.51862737 -8.1875 0.6875 C-5.22019177 -0.24508259 -3.10315844 -0.37237901 0 0 Z " fill="#F7F7F6" transform="translate(1336,464)"/>
<path d="M0 0 C1.75717571 1.75717571 1.46634576 4.42129472 1.75 6.8125 C2.62454122 12.95462668 4.4430843 18.04092576 7.07421875 23.63671875 C7.37972656 24.41660156 7.68523437 25.19648438 8 26 C7.67 26.66 7.34 27.32 7 28 C6.28457031 27.2265625 5.56914062 26.453125 4.83203125 25.65625 C-4.04990879 16.28438625 -13.46879543 8.9313583 -26 5 C-26 4.34 -26 3.68 -26 3 C-7.41336207 -0.87413793 -7.41336207 -0.87413793 0 0 Z " fill="#0C0C0B" transform="translate(388,424)"/>
<path d="M0 0 C0.99 0 1.98 0 3 0 C4.30660177 3.11895558 5.592379 6.24611487 6.875 9.375 C7.23980469 10.24511719 7.60460937 11.11523438 7.98046875 12.01171875 C13.00131272 24.3356085 13.00131272 24.3356085 13 30 C11.43981635 32.02056571 10.39113056 32.85332604 8 33.75 C6 34 6 34 3 33 C2.3125 30.9375 2.3125 30.9375 2 29 C0.081875 29.0309375 0.081875 29.0309375 -1.875 29.0625 C-6.96207017 29.07058755 -11.9516147 28.59020789 -17 28 C-17 27.67 -17 27.34 -17 27 C-12.37630977 25.19320413 -8.57471347 24.78160918 -3.625 24.875 C-2.37976563 24.89304687 -1.13453125 24.91109375 0.1484375 24.9296875 C1.08945312 24.95289063 2.03046875 24.97609375 3 25 C3.33 23.35 3.66 21.7 4 20 C4.66 20 5.32 20 6 20 C5.7827124 19.4652002 5.5654248 18.93040039 5.34155273 18.37939453 C4.36553265 15.96440748 3.4014002 13.54484849 2.4375 11.125 C2.09525391 10.28324219 1.75300781 9.44148438 1.40039062 8.57421875 C1.08134766 7.76855469 0.76230469 6.96289062 0.43359375 6.1328125 C0.13509521 5.38918457 -0.16340332 4.64555664 -0.47094727 3.87939453 C-1 2 -1 2 0 0 Z " fill="#E9E8E5" transform="translate(497,487)"/>
<path d="M0 0 C2.625 1.9375 2.625 1.9375 4 5 C4.19888688 8.91601413 4.10381364 12.53916652 1.68359375 15.7421875 C-0.72707985 17.54320119 -3.05510201 17.53630545 -5.9921875 17.40625 C-9.61888598 16.6724433 -10.996799 15.00480151 -13 12 C-13.868549 8.11843147 -13.57817178 5.00551615 -11.5625 1.5 C-7.74182633 -0.73649191 -4.31160556 -0.88443191 0 0 Z " fill="#060505" transform="translate(410,458)"/>
<path d="M0 0 C2.98686939 2.05762114 4.73294117 3.5748543 5.41796875 7.23046875 C5.62161328 13.17494964 5.62161328 13.17494964 3.7109375 15.7109375 C0.73873602 17.95026738 -2.33711758 18.34272584 -6 18 C-9.6665267 15.5036414 -10.77129535 13.71152558 -12.125 9.5 C-12 6 -12 6 -9.6875 3.125 C-6.23434681 0.3945998 -4.40787232 -0.61505195 0 0 Z " fill="#0A0908" transform="translate(327,474)"/>
<path d="M0 0 C4.45850936 0.79616239 5.90783917 1.93313458 8.5 5.625 C9.125 9.125 9.125 9.125 8.5 12.625 C6.07855492 15.97229173 4.62569154 17.38549116 0.5625 18.25 C-3.69081827 17.38197586 -5.61949992 15.84841676 -8.5 12.625 C-9.1875 9.125 -9.1875 9.125 -8.5 5.625 C-5.90783917 1.93313458 -4.45850936 0.79616239 0 0 Z " fill="#0A0908" transform="translate(335.5,545.375)"/>
<path d="M0 0 C2.5 1.4375 2.5 1.4375 4 4 C4.59907111 7.81477466 5.05872188 11.47149156 2.78515625 14.75390625 C0.42323662 16.40259851 -1.13851299 16.40054899 -4 16.375 C-4.86625 16.38273438 -5.7325 16.39046875 -6.625 16.3984375 C-9 16 -9 16 -10.78515625 14.75390625 C-13.05872188 11.47149156 -12.59907111 7.81477466 -12 4 C-9.21030092 -0.76573593 -5.06596452 -0.98620211 0 0 Z " fill="#060505" transform="translate(482,561)"/>
<path d="M0 0 C1.66194453 0.35613097 3.328451 0.69208308 5 1 C5 1.33 5 1.66 5 2 C2.69 2 0.38 2 -2 2 C-1.37571782 4.66683649 -0.75059174 7.33347067 -0.125 10 C0.04902344 10.74378906 0.22304688 11.48757813 0.40234375 12.25390625 C1.55902782 17.18052359 2.76213258 22.09313816 4 27 C3.01 27.33 2.02 27.66 1 28 C-2.89896244 19.74074749 -5.0188848 12.07897651 -6 3 C-14.79705092 2.61935837 -23.31163005 3.79268308 -32 5 C-32 5.66 -32 6.32 -32 7 C-33.32 6.34 -34.64 5.68 -36 5 C-36 4.34 -36 3.68 -36 3 C-9.91878173 -4.95939086 -9.91878173 -4.95939086 0 0 Z " fill="#E4E3E2" transform="translate(394,422)"/>
<path d="M0 0 C3.21497294 1.50032071 5.76270286 3.24544475 8 6 C8.96866343 10.47129424 9.20069535 15.08616437 6.7109375 19.0546875 C3.70751641 21.92096608 1.0481438 23.35622293 -3.125 23.5625 C-8.16040746 22.83155376 -10.62588406 21.7057991 -13.8125 17.75 C-15.33107326 14.23330403 -15.40718483 11.80039173 -15 8 C-11.84204634 1.05250196 -7.56372379 -1.13003841 0 0 Z M-12 8 C-12.91666667 11.5 -12.91666667 11.5 -12 15 C-9.11949992 18.22341676 -7.19081827 19.75697586 -2.9375 20.625 C1.12569154 19.76049116 2.57855492 18.34729173 5 15 C5.83333333 11.5 5.83333333 11.5 5 8 C2.40783917 4.30813458 0.95850936 3.17116239 -3.5 2.375 C-7.95850936 3.17116239 -9.40783917 4.30813458 -12 8 Z " fill="#E6E5DF" transform="translate(339,543)"/>
<path d="M0 0 C4.58859749 0.66758381 6.94555241 3.64666059 10 6.875 C16.39462705 14.006434 16.39462705 14.006434 25.25 16.6875 C26.58804687 16.78611328 26.58804687 16.78611328 27.953125 16.88671875 C28.62859375 16.92410156 29.3040625 16.96148438 30 17 C29.505 18.485 29.505 18.485 29 20 C28.236875 20.144375 27.47375 20.28875 26.6875 20.4375 C23.91827092 20.9632594 23.91827092 20.9632594 21 22 C19.15389468 22.08239169 17.30494836 22.10743359 15.45703125 22.09765625 C14.38388672 22.09443359 13.31074219 22.09121094 12.20507812 22.08789062 C11.08552734 22.07951172 9.96597656 22.07113281 8.8125 22.0625 C7.68134766 22.05798828 6.55019531 22.05347656 5.38476562 22.04882812 C2.58979073 22.03703498 -0.2050782 22.0205765 -3 22 C-3 21.67 -3 21.34 -3 21 C-2.05125 20.87625 -1.1025 20.7525 -0.125 20.625 C3.08667191 20.28312823 3.08667191 20.28312823 5 18 C7.3828125 17.5859375 7.3828125 17.5859375 10.125 17.375 C11.03507812 17.30023437 11.94515625 17.22546875 12.8828125 17.1484375 C13.58148438 17.09945312 14.28015625 17.05046875 15 17 C14.18015625 16.26394531 13.3603125 15.52789063 12.515625 14.76953125 C11.42690461 13.78405158 10.33837294 12.79836339 9.25 11.8125 C8.71117187 11.32974609 8.17234375 10.84699219 7.6171875 10.34960938 C4.41287909 7.43837795 1.6158121 4.47293499 -1 1 C-0.67 0.67 -0.34 0.34 0 0 Z " fill="#E1DFD9" transform="translate(381,641)"/>
<path d="M0 0 C-0.33 0.33 -0.66 0.66 -1 1 C-0.01 1.66 0.98 2.32 2 3 C0.82824219 3.37511719 -0.34351563 3.75023437 -1.55078125 4.13671875 C-10.2781125 6.96655173 -18.76631236 9.90129206 -27 14 C-26.79375 15.11375 -26.5875 16.2275 -26.375 17.375 C-26.25125 18.57125 -26.1275 19.7675 -26 21 C-28 23 -28 23 -31 24 C-30.96519531 23.39671875 -30.93039062 22.7934375 -30.89453125 22.171875 C-30.77549606 18.65750272 -30.6832435 15.79189124 -32 12.5 C-35.13848062 10.14613953 -38.12111444 10.25435315 -42 10 C-41.67 9.01 -41.34 8.02 -41 7 C-34.375 6.75 -34.375 6.75 -31 9 C-25.38414338 8.71748451 -20.94207704 6.90050888 -15.9375 4.5625 C-2.86840158 -1.43420079 -2.86840158 -1.43420079 0 0 Z " fill="#E8E7E2" transform="translate(444,448)"/>
<path d="M0 0 C2 2 2 2 2 5 C1.33613281 5.02578125 0.67226563 5.0515625 -0.01171875 5.078125 C-5.48606338 5.42976174 -9.1169216 5.74113982 -13 10 C-14.59896868 14.79690603 -14.2521693 19.17020413 -13 24 C-13.33 24.66 -13.66 25.32 -14 26 C-17 25 -17 25 -18.1875 22.875 C-19.97529124 16.54896945 -19.17688566 11.7183942 -16 6 C-11.18468093 0.89523553 -6.94862275 -0.37901579 0 0 Z " fill="#1A181A" transform="translate(339,538)"/>
<path d="M0 0 C1.1484375 2.05078125 1.1484375 2.05078125 2 4 C1.16597656 4.00257813 0.33195312 4.00515625 -0.52734375 4.0078125 C-8.53560365 4.28301043 -14.02728395 5.47976244 -20 11 C-21.0349209 12.3064136 -22.04562236 13.63363947 -23 15 C-23.99 14.67 -24.98 14.34 -26 14 C-25.67 13.01 -25.34 12.02 -25 11 C-25.66 11 -26.32 11 -27 11 C-26 8 -26 8 -24.3894043 6.94091797 C-23.70789307 6.62783691 -23.02638184 6.31475586 -22.32421875 5.9921875 C-21.57849609 5.64542969 -20.83277344 5.29867188 -20.06445312 4.94140625 C-19.28005859 4.58949219 -18.49566406 4.23757813 -17.6875 3.875 C-16.91470703 3.51535156 -16.14191406 3.15570313 -15.34570312 2.78515625 C-5.31777731 -1.81923961 -5.31777731 -1.81923961 0 0 Z " fill="#F3F3F0" transform="translate(359,427)"/>
<path d="M0 0 C0.66 0 1.32 0 2 0 C3.42258812 3.82320557 4.24042276 6.91281305 4 11 C0.98968256 11.93423645 0.13349732 12.04449911 -3 11 C-3.6875 8.9375 -3.6875 8.9375 -4 7 C-5.918125 7.0309375 -5.918125 7.0309375 -7.875 7.0625 C-12.96207017 7.07058755 -17.9516147 6.59020789 -23 6 C-23 5.67 -23 5.34 -23 5 C-16.96995507 2.59360008 -11.65941191 2.96565109 -5.265625 3.22265625 C-3.64914062 3.11244141 -3.64914062 3.11244141 -2 3 C-1.34 2.01 -0.68 1.02 0 0 Z " fill="#DEDEDE" transform="translate(503,509)"/>
<path d="M0 0 C4.29 0.33 8.58 0.66 13 1 C12.67 1.99 12.34 2.98 12 4 C11.236875 4.144375 10.47375 4.28875 9.6875 4.4375 C6.91827092 4.9632594 6.91827092 4.9632594 4 6 C2.15389468 6.08239169 0.30494836 6.10743359 -1.54296875 6.09765625 C-2.61611328 6.09443359 -3.68925781 6.09121094 -4.79492188 6.08789062 C-5.91447266 6.07951172 -7.03402344 6.07113281 -8.1875 6.0625 C-9.31865234 6.05798828 -10.44980469 6.05347656 -11.61523438 6.04882812 C-14.41020927 6.03703498 -17.2050782 6.0205765 -20 6 C-20 5.67 -20 5.34 -20 5 C-18.02 4.67 -16.04 4.34 -14 4 C-14 3.67 -14 3.34 -14 3 C-9.71 3 -5.42 3 -1 3 C-0.67 2.01 -0.34 1.02 0 0 Z " fill="#D3D0C6" transform="translate(398,657)"/>
<path d="M0 0 C3.43811794 0.28650983 4.74171193 0.73433227 7.1875 3.25 C10.79843286 8.72865676 11.21817572 12.56381619 11 19 C9.68 19 8.36 19 7 19 C6.96132813 18.12988281 6.96132813 18.12988281 6.921875 17.2421875 C6.51973253 11.70358892 5.45772468 8.50552004 2 4 C1.30570621 2.6808418 0.62469505 1.35350594 0 0 Z " fill="#E4E7E0" transform="translate(344,539)"/>
<path d="M0 0 C2.96175123 0.61277612 4.38058783 1.25372522 7 3 C9.97449608 3.24219315 9.97449608 3.24219315 13.1875 3.125 C14.81751953 3.09792969 14.81751953 3.09792969 16.48046875 3.0703125 C17.31191406 3.04710937 18.14335937 3.02390625 19 3 C19 4.32 19 5.64 19 7 C12.92039012 9.02653663 7.98890831 7.7275697 2 6 C1.01 6.33 0.02 6.66 -1 7 C-0.67 4.69 -0.34 2.38 0 0 Z " fill="#F4F2EE" transform="translate(362,500)"/>
<path d="M0 0 C0.66 0 1.32 0 2 0 C2 3.3 2 6.6 2 10 C2.66 10.33 3.32 10.66 4 11 C2.68 11 1.36 11 0 11 C-0.103125 11.598125 -0.20625 12.19625 -0.3125 12.8125 C-1.10503854 15.33421352 -1.91591409 16.39685699 -4 18 C-4.99 18 -5.98 18 -7 18 C-5.93934702 14.99481655 -4.80847571 12.73302674 -2.9375 10.125 C-0.77944679 6.64426901 -0.32360548 4.04506856 0 0 Z " fill="#F8FAF5" transform="translate(387,488)"/>
<path d="M0 0 C4.47971204 -0.3632199 4.47971204 -0.3632199 6.65625 1.15625 C8.53015399 3.72742059 8.29842721 5.5445625 8.1875 8.6875 C8.16042969 9.68136719 8.13335937 10.67523437 8.10546875 11.69921875 C8.07066406 12.45847656 8.03585937 13.21773437 8 14 C6.125 15.0625 6.125 15.0625 4 16 C3.34 15.67 2.68 15.34 2 15 C2.66 14.01 3.32 13.02 4 12 C4.47925039 7.6867465 4.47260063 5.69413218 2 2.0625 C1.34 1.381875 0.68 0.70125 0 0 Z " fill="#DFDEDB" transform="translate(339,546)"/>
<path d="M0 0 C-0.33 0.33 -0.66 0.66 -1 1 C-0.01 1.66 0.98 2.32 2 3 C0.09021367 3.7266797 -1.82818515 4.43075588 -3.75 5.125 C-5.35101563 5.71667969 -5.35101563 5.71667969 -6.984375 6.3203125 C-10 7 -10 7 -12.390625 6.1171875 C-12.92171875 5.74851562 -13.4528125 5.37984375 -14 5 C-11.71264299 2.38167493 -9.73180263 1.31372869 -6.4375 0.25 C-5.65246094 -0.01296875 -4.86742187 -0.2759375 -4.05859375 -0.546875 C-2 -1 -2 -1 0 0 Z " fill="#D3D2CF" transform="translate(444,448)"/>
<path d="M0 0 C2.66666667 1.33333333 5.33333333 2.66666667 8 4 C8 4.66 8 5.32 8 6 C9.65 5.67 11.3 5.34 13 5 C13 5.66 13 6.32 13 7 C13.99 7.33 14.98 7.66 16 8 C9.01370081 8.50604984 4.79799884 8.0333905 -1 4 C-0.67 2.68 -0.34 1.36 0 0 Z " fill="#1B1518" transform="translate(325,562)"/>
<path d="M0 0 C0.66 0.33 1.32 0.66 2 1 C1.98839844 1.83144531 1.97679687 2.66289062 1.96484375 3.51953125 C1.95582031 4.60621094 1.94679688 5.69289063 1.9375 6.8125 C1.92589844 7.89144531 1.91429687 8.97039062 1.90234375 10.08203125 C1.86375234 13.06512169 1.86375234 13.06512169 3 16 C2.01 16.33 1.02 16.66 0 17 C-2.23465229 13.64802157 -2.27108649 12.42208754 -2.25 8.5 C-2.25515625 7.5409375 -2.2603125 6.581875 -2.265625 5.59375 C-2 3 -2 3 0 0 Z " fill="#F7F8F1" transform="translate(361,484)"/>
<path d="M0 0 C0.66 0.33 1.32 0.66 2 1 C1.67566492 6.35152885 -1.49704824 9.28280043 -5 13 C-5.33 12.34 -5.66 11.68 -6 11 C-6.66 10.67 -7.32 10.34 -8 10 C-7.236875 9.278125 -6.47375 8.55625 -5.6875 7.8125 C-3.28866409 5.30209033 -1.64589779 3.03191698 0 0 Z " fill="#E7E6E1" transform="translate(352,557)"/>
<path d="M0 0 C2.02408755 0.09002398 4.04544287 0.24641038 6.0625 0.4375 C7.71958984 0.59025391 7.71958984 0.59025391 9.41015625 0.74609375 C10.26480469 0.82988281 11.11945313 0.91367187 12 1 C11.67 3.97 11.34 6.94 11 10 C10.67 10 10.34 10 10 10 C10 8.02 10 6.04 10 4 C9.37351562 3.95101563 8.74703125 3.90203125 8.1015625 3.8515625 C7.28429687 3.77679688 6.46703125 3.70203125 5.625 3.625 C4.40683594 3.52058594 4.40683594 3.52058594 3.1640625 3.4140625 C1 3 1 3 -1 1 C-0.67 0.67 -0.34 0.34 0 0 Z " fill="#E0DED8" transform="translate(348,485)"/>
<path d="M0 0 C0 1.32 0 2.64 0 4 C-4.0527516 4.98248524 -7.83861737 5.08159574 -12 5 C-9.56521739 1.22608696 -9.56521739 1.22608696 -7.125 0.25 C-4.73068929 -0.03168361 -2.40866079 -0.06690724 0 0 Z " fill="#E5E5DF" transform="translate(454,445)"/>
<path d="M0 0 C0 0.33 0 0.66 0 1 C-0.67546875 1.10957031 -1.3509375 1.21914063 -2.046875 1.33203125 C-2.93890625 1.49058594 -3.8309375 1.64914062 -4.75 1.8125 C-5.63171875 1.96332031 -6.5134375 2.11414063 -7.421875 2.26953125 C-10.1910911 3.05414248 -11.8259401 4.14595359 -14 6 C-14.66 5.01 -15.32 4.02 -16 3 C-10.71058882 -2.8461913 -7.28825945 -2.26137694 0 0 Z " fill="#DDDAD5" transform="translate(377,480)"/>
<path d="M0 0 C4.41889613 1.35021826 6.34345343 3.26115668 9 7 C8.67 7.66 8.34 8.32 8 9 C4.12867972 8.42647107 1.91827204 6.51295648 -1 4 C-0.34 4 0.32 4 1 4 C0.67 2.68 0.34 1.36 0 0 Z " fill="#232221" transform="translate(340,539)"/>
<path d="M0 0 C0.66 0 1.32 0 2 0 C3.42258812 3.82320557 4.24042276 6.91281305 4 11 C0.125 9.125 0.125 9.125 -1 8 C-1.125 4.5 -1.125 4.5 -1 1 C-0.67 0.67 -0.34 0.34 0 0 Z " fill="#2F2D2F" transform="translate(503,509)"/>
<path d="M0 0 C5.65394631 -0.34615998 9.03006806 0.56574762 14 3 C13.360625 3.12375 12.72125 3.2475 12.0625 3.375 C11.381875 3.58125 10.70125 3.7875 10 4 C9.67 4.66 9.34 5.32 9 6 C8.34 5.34 7.68 4.68 7 4 C4.34462628 3.43479997 1.70855287 3.26211802 -1 3 C-0.67 2.01 -0.34 1.02 0 0 Z " fill="#DEDEDC" transform="translate(403,455)"/>
<path d="M0 0 C0.33 1.32 0.66 2.64 1 4 C-2.3 4 -5.6 4 -9 4 C-9 3.01 -9 2.02 -9 1 C-6.04335481 -0.4783226 -3.25770263 -0.06032783 0 0 Z " fill="#080502" transform="translate(340,539)"/>
<path d="M0 0 C2.67927341 4.01891012 2.15601248 6.24161923 2 11 C0.68 11 -0.64 11 -2 11 C-2 8.03 -2 5.06 -2 2 C-1.34 2 -0.68 2 0 2 C0 1.34 0 0.68 0 0 Z " fill="#CED0C9" transform="translate(353,547)"/>
<path d="M0 0 C8.57142857 -0.28571429 8.57142857 -0.28571429 12 2 C12 2.66 12 3.32 12 4 C8.37 3.67 4.74 3.34 1 3 C0.67 2.01 0.34 1.02 0 0 Z " fill="#F6F6F0" transform="translate(370,477)"/>
<path d="M0 0 C-0.66 1.32 -1.32 2.64 -2 4 C-3.65 4 -5.3 4 -7 4 C-7 3.34 -7 2.68 -7 2 C-8.98 2.66 -10.96 3.32 -13 4 C-12.67 3.01 -12.34 2.02 -12 1 C-7.95858806 0.36605303 -4.0934693 -0.12404452 0 0 Z " fill="#131111" transform="translate(345,565)"/>
<path d="M0 0 C2 1 2 1 3.1875 4.4375 C4 8 4 8 3 10 C2.01 9.67 1.02 9.34 0 9 C-1.36623674 6.26752652 -1.128426 4.01801098 -1 1 C-0.67 0.67 -0.34 0.34 0 0 Z " fill="#0E0D0D" transform="translate(322,554)"/>
<path d="M0 0 C0.66 0 1.32 0 2 0 C3.03789581 1.64333504 4.03567924 3.31243867 5 5 C5.66 5.66 6.32 6.32 7 7 C6.34 7.66 5.68 8.32 5 9 C0.23021583 5.57553957 0.23021583 5.57553957 -0.875 2.8125 C-0.91625 2.214375 -0.9575 1.61625 -1 1 C-0.67 0.67 -0.34 0.34 0 0 Z " fill="#E7E3DB" transform="translate(320,561)"/>
<path d="M0 0 C3.63 0 7.26 0 11 0 C10.67 0.99 10.34 1.98 10 3 C8.72125 3.061875 7.4425 3.12375 6.125 3.1875 C5.40570313 3.22230469 4.68640625 3.25710938 3.9453125 3.29296875 C3.30335938 3.19628906 2.66140625 3.09960938 2 3 C1.34 2.01 0.68 1.02 0 0 Z " fill="#E8E8E4" transform="translate(488,513)"/>
<path d="M0 0 C1.4800841 0.11362262 2.95910074 0.24122908 4.4375 0.375 C5.26121094 0.44460938 6.08492188 0.51421875 6.93359375 0.5859375 C7.95646484 0.79089844 7.95646484 0.79089844 9 1 C9.33 1.66 9.66 2.32 10 3 C6.04 3 2.08 3 -2 3 C-1.34 2.01 -0.68 1.02 0 0 Z " fill="#FBFBF9" transform="translate(333,543)"/>
<path d="M0 0 C3.45925163 1.2491742 6.14693203 2.67527795 9 5 C5.61608307 6.06351675 4.4195366 6.21442982 1.1875 4.5625 C0.465625 4.046875 -0.25625 3.53125 -1 3 C-0.67 2.01 -0.34 1.02 0 0 Z " fill="#E1E0DC" transform="translate(449,436)"/>
<path d="M0 0 C1.37478516 0.01740234 1.37478516 0.01740234 2.77734375 0.03515625 C3.69644531 0.04417969 4.61554688 0.05320312 5.5625 0.0625 C6.27277344 0.07410156 6.98304688 0.08570313 7.71484375 0.09765625 C7.38484375 1.08765625 7.05484375 2.07765625 6.71484375 3.09765625 C0.66015625 3.29296875 0.66015625 3.29296875 -1.28515625 3.09765625 C-1.94515625 2.43765625 -2.60515625 1.77765625 -3.28515625 1.09765625 C-2.28515625 0.09765625 -2.28515625 0.09765625 0 0 Z " fill="#F5F9F1" transform="translate(378.28515625,658.90234375)"/>
<path d="M0 0 C0 0.99 0 1.98 0 3 C-3.47325181 4.1577506 -6.36067448 4.06866652 -10 4 C-9.34 3.34 -8.68 2.68 -8 2 C-7.01 2 -6.02 2 -5 2 C-6.65 1.67 -8.3 1.34 -10 1 C-10 0.67 -10 0.34 -10 0 C-2.25 -1.125 -2.25 -1.125 0 0 Z " fill="#BBBCB9" transform="translate(381,504)"/>
<path d="M0 0 C-0.33 2.31 -0.66 4.62 -1 7 C-2.65 7.33 -4.3 7.66 -6 8 C-3.73913043 0 -3.73913043 0 0 0 Z " fill="#F3EFEE" transform="translate(287,484)"/>
<path d="M0 0 C1.72863281 0.02707031 1.72863281 0.02707031 3.4921875 0.0546875 C4.36101562 0.07789063 5.22984375 0.10109375 6.125 0.125 C6.125 0.455 6.125 0.785 6.125 1.125 C2.825 1.455 -0.475 1.785 -3.875 2.125 C-3.875 2.455 -3.875 2.785 -3.875 3.125 C-6.845 3.125 -9.815 3.125 -12.875 3.125 C-12.875 2.795 -12.875 2.465 -12.875 2.125 C-8.41165816 0.40206865 -4.77298769 -0.09740791 0 0 Z " fill="#B5B7B3" transform="translate(492.875,511.875)"/>
<path d="M0 0 C0.99 0.33 1.98 0.66 3 1 C2.75 3.875 2.75 3.875 2 7 C0.02 7.99 0.02 7.99 -2 9 C-1.34 6.03 -0.68 3.06 0 0 Z " fill="#E1DDDD" transform="translate(327,573)"/>
<path d="M0 0 C0.99 0.33 1.98 0.66 3 1 C2.67 2.98 2.34 4.96 2 7 C0.68 6.67 -0.64 6.34 -2 6 C-1.34 4.02 -0.68 2.04 0 0 Z " fill="#DFDFD8" transform="translate(319,544)"/>
<path d="M0 0 C1.98 0 3.96 0 6 0 C4.35 1.65 2.7 3.3 1 5 C0.01 4.67 -0.98 4.34 -2 4 C-1.34 2.68 -0.68 1.36 0 0 Z " fill="#E6E6DF" transform="translate(322,540)"/>
<path d="M0 0 C0.66 0 1.32 0 2 0 C2.33 0.99 2.66 1.98 3 3 C1.6875 4.5 1.6875 4.5 0 6 C-0.99 6 -1.98 6 -3 6 C-1.125 1.125 -1.125 1.125 0 0 Z " fill="#EEEEE4" transform="translate(383,500)"/>
<path d="M0 0 C-0.33 2.31 -0.66 4.62 -1 7 C-1.99 7 -2.98 7 -4 7 C-4.33 6.34 -4.66 5.68 -5 5 C-3.03030303 0 -3.03030303 0 0 0 Z " fill="#DBDBDB" transform="translate(505,524)"/>
<path d="M0 0 C-0.66 1.32 -1.32 2.64 -2 4 C-3.32 3.34 -4.64 2.68 -6 2 C-6 1.34 -6 0.68 -6 0 C-3.50907189 -1.24546405 -2.58919267 -0.7767578 0 0 Z " fill="#D4D4D1" transform="translate(364,425)"/>
<path d="M0 0 C0 0.66 0 1.32 0 2 C0.99 2.33 1.98 2.66 3 3 C-0.3 3 -3.6 3 -7 3 C-3 0 -3 0 0 0 Z " fill="#4C4641" transform="translate(338,567)"/>
<path d="M0 0 C0.99 0.33 1.98 0.66 3 1 C3 1.99 3 2.98 3 4 C0.69 4 -1.62 4 -4 4 C-3.67 3.34 -3.34 2.68 -3 2 C-2.01 2 -1.02 2 0 2 C0 1.34 0 0.68 0 0 Z " fill="#110B11" transform="translate(338,539)"/>
<path d="M0 0 C0.99 0.99 1.98 1.98 3 3 C2.01 3.99 1.02 4.98 0 6 C0 5.34 0 4.68 0 4 C-0.99 3.67 -1.98 3.34 -3 3 C-2.01 2.01 -1.02 1.02 0 0 Z " fill="#36332D" transform="translate(345,561)"/>
<path d="M0 0 C0.99 0.33 1.98 0.66 3 1 C3 2.65 3 4.3 3 6 C1.68 5.34 0.36 4.68 -1 4 C-0.67 2.68 -0.34 1.36 0 0 Z " fill="#2D2A2A" transform="translate(325,562)"/>
</svg>
